%TF.GenerationSoftware,KiCad,Pcbnew,(5.1.6)-1*%
%TF.CreationDate,2020-09-14T19:28:27+02:00*%
%TF.ProjectId,vacuumSensor,76616375-756d-4536-956e-736f722e6b69,rev?*%
%TF.SameCoordinates,Original*%
%TF.FileFunction,Legend,Bot*%
%TF.FilePolarity,Positive*%
%FSLAX46Y46*%
G04 Gerber Fmt 4.6, Leading zero omitted, Abs format (unit mm)*
G04 Created by KiCad (PCBNEW (5.1.6)-1) date 2020-09-14 19:28:27*
%MOMM*%
%LPD*%
G01*
G04 APERTURE LIST*
%ADD10C,0.150000*%
G04 APERTURE END LIST*
D10*
X154032976Y-92212380D02*
X154366309Y-91736190D01*
X154604404Y-92212380D02*
X154604404Y-91212380D01*
X154223452Y-91212380D01*
X154128214Y-91260000D01*
X154080595Y-91307619D01*
X154032976Y-91402857D01*
X154032976Y-91545714D01*
X154080595Y-91640952D01*
X154128214Y-91688571D01*
X154223452Y-91736190D01*
X154604404Y-91736190D01*
X153461547Y-92212380D02*
X153556785Y-92164761D01*
X153604404Y-92117142D01*
X153652023Y-92021904D01*
X153652023Y-91736190D01*
X153604404Y-91640952D01*
X153556785Y-91593333D01*
X153461547Y-91545714D01*
X153318690Y-91545714D01*
X153223452Y-91593333D01*
X153175833Y-91640952D01*
X153128214Y-91736190D01*
X153128214Y-92021904D01*
X153175833Y-92117142D01*
X153223452Y-92164761D01*
X153318690Y-92212380D01*
X153461547Y-92212380D01*
X152271071Y-91545714D02*
X152271071Y-92212380D01*
X152699642Y-91545714D02*
X152699642Y-92069523D01*
X152652023Y-92164761D01*
X152556785Y-92212380D01*
X152413928Y-92212380D01*
X152318690Y-92164761D01*
X152271071Y-92117142D01*
X151937738Y-91545714D02*
X151556785Y-91545714D01*
X151794880Y-91212380D02*
X151794880Y-92069523D01*
X151747261Y-92164761D01*
X151652023Y-92212380D01*
X151556785Y-92212380D01*
X151223452Y-92212380D02*
X151223452Y-91545714D01*
X151223452Y-91212380D02*
X151271071Y-91260000D01*
X151223452Y-91307619D01*
X151175833Y-91260000D01*
X151223452Y-91212380D01*
X151223452Y-91307619D01*
X150747261Y-91545714D02*
X150747261Y-92212380D01*
X150747261Y-91640952D02*
X150699642Y-91593333D01*
X150604404Y-91545714D01*
X150461547Y-91545714D01*
X150366309Y-91593333D01*
X150318690Y-91688571D01*
X150318690Y-92212380D01*
X149413928Y-91545714D02*
X149413928Y-92355238D01*
X149461547Y-92450476D01*
X149509166Y-92498095D01*
X149604404Y-92545714D01*
X149747261Y-92545714D01*
X149842500Y-92498095D01*
X149413928Y-92164761D02*
X149509166Y-92212380D01*
X149699642Y-92212380D01*
X149794880Y-92164761D01*
X149842500Y-92117142D01*
X149890119Y-92021904D01*
X149890119Y-91736190D01*
X149842500Y-91640952D01*
X149794880Y-91593333D01*
X149699642Y-91545714D01*
X149509166Y-91545714D01*
X149413928Y-91593333D01*
X148175833Y-92212380D02*
X148175833Y-91212380D01*
X148175833Y-91593333D02*
X148080595Y-91545714D01*
X147890119Y-91545714D01*
X147794880Y-91593333D01*
X147747261Y-91640952D01*
X147699642Y-91736190D01*
X147699642Y-92021904D01*
X147747261Y-92117142D01*
X147794880Y-92164761D01*
X147890119Y-92212380D01*
X148080595Y-92212380D01*
X148175833Y-92164761D01*
X147366309Y-91545714D02*
X147128214Y-92212380D01*
X146890119Y-91545714D02*
X147128214Y-92212380D01*
X147223452Y-92450476D01*
X147271071Y-92498095D01*
X147366309Y-92545714D01*
X145461547Y-91212380D02*
X145461547Y-91926666D01*
X145509166Y-92069523D01*
X145604404Y-92164761D01*
X145747261Y-92212380D01*
X145842500Y-92212380D01*
X144556785Y-91545714D02*
X144556785Y-92212380D01*
X144985357Y-91545714D02*
X144985357Y-92069523D01*
X144937738Y-92164761D01*
X144842500Y-92212380D01*
X144699642Y-92212380D01*
X144604404Y-92164761D01*
X144556785Y-92117142D01*
X143937738Y-92212380D02*
X144032976Y-92164761D01*
X144080595Y-92069523D01*
X144080595Y-91212380D01*
X143556785Y-92212380D02*
X143556785Y-91545714D01*
X143556785Y-91212380D02*
X143604404Y-91260000D01*
X143556785Y-91307619D01*
X143509166Y-91260000D01*
X143556785Y-91212380D01*
X143556785Y-91307619D01*
X142699642Y-92164761D02*
X142794880Y-92212380D01*
X142985357Y-92212380D01*
X143080595Y-92164761D01*
X143128214Y-92069523D01*
X143128214Y-91688571D01*
X143080595Y-91593333D01*
X142985357Y-91545714D01*
X142794880Y-91545714D01*
X142699642Y-91593333D01*
X142652023Y-91688571D01*
X142652023Y-91783809D01*
X143128214Y-91879047D01*
X142223452Y-91545714D02*
X142223452Y-92212380D01*
X142223452Y-91640952D02*
X142175833Y-91593333D01*
X142080595Y-91545714D01*
X141937738Y-91545714D01*
X141842500Y-91593333D01*
X141794880Y-91688571D01*
X141794880Y-92212380D01*
X140556785Y-92212380D02*
X140556785Y-91212380D01*
X140318690Y-91212380D01*
X140175833Y-91260000D01*
X140080595Y-91355238D01*
X140032976Y-91450476D01*
X139985357Y-91640952D01*
X139985357Y-91783809D01*
X140032976Y-91974285D01*
X140080595Y-92069523D01*
X140175833Y-92164761D01*
X140318690Y-92212380D01*
X140556785Y-92212380D01*
X139175833Y-92164761D02*
X139271071Y-92212380D01*
X139461547Y-92212380D01*
X139556785Y-92164761D01*
X139604404Y-92069523D01*
X139604404Y-91688571D01*
X139556785Y-91593333D01*
X139461547Y-91545714D01*
X139271071Y-91545714D01*
X139175833Y-91593333D01*
X139128214Y-91688571D01*
X139128214Y-91783809D01*
X139604404Y-91879047D01*
X138794880Y-91545714D02*
X138556785Y-92212380D01*
X138318690Y-91545714D01*
X137937738Y-92212380D02*
X137937738Y-91545714D01*
X137937738Y-91212380D02*
X137985357Y-91260000D01*
X137937738Y-91307619D01*
X137890119Y-91260000D01*
X137937738Y-91212380D01*
X137937738Y-91307619D01*
X137318690Y-92212380D02*
X137413928Y-92164761D01*
X137461547Y-92069523D01*
X137461547Y-91212380D01*
X136794880Y-92212380D02*
X136890119Y-92164761D01*
X136937738Y-92069523D01*
X136937738Y-91212380D01*
X136032976Y-92164761D02*
X136128214Y-92212380D01*
X136318690Y-92212380D01*
X136413928Y-92164761D01*
X136461547Y-92069523D01*
X136461547Y-91688571D01*
X136413928Y-91593333D01*
X136318690Y-91545714D01*
X136128214Y-91545714D01*
X136032976Y-91593333D01*
X135985357Y-91688571D01*
X135985357Y-91783809D01*
X136461547Y-91879047D01*
X135556785Y-92212380D02*
X135556785Y-91545714D01*
X135556785Y-91736190D02*
X135509166Y-91640952D01*
X135461547Y-91593333D01*
X135366309Y-91545714D01*
X135271071Y-91545714D01*
X134985357Y-92164761D02*
X134890119Y-92212380D01*
X134699642Y-92212380D01*
X134604404Y-92164761D01*
X134556785Y-92069523D01*
X134556785Y-92021904D01*
X134604404Y-91926666D01*
X134699642Y-91879047D01*
X134842500Y-91879047D01*
X134937738Y-91831428D01*
X134985357Y-91736190D01*
X134985357Y-91688571D01*
X134937738Y-91593333D01*
X134842500Y-91545714D01*
X134699642Y-91545714D01*
X134604404Y-91593333D01*
X154271071Y-93338571D02*
X154128214Y-93386190D01*
X154080595Y-93433809D01*
X154032976Y-93529047D01*
X154032976Y-93671904D01*
X154080595Y-93767142D01*
X154128214Y-93814761D01*
X154223452Y-93862380D01*
X154604404Y-93862380D01*
X154604404Y-92862380D01*
X154271071Y-92862380D01*
X154175833Y-92910000D01*
X154128214Y-92957619D01*
X154080595Y-93052857D01*
X154080595Y-93148095D01*
X154128214Y-93243333D01*
X154175833Y-93290952D01*
X154271071Y-93338571D01*
X154604404Y-93338571D01*
X153175833Y-93862380D02*
X153175833Y-93338571D01*
X153223452Y-93243333D01*
X153318690Y-93195714D01*
X153509166Y-93195714D01*
X153604404Y-93243333D01*
X153175833Y-93814761D02*
X153271071Y-93862380D01*
X153509166Y-93862380D01*
X153604404Y-93814761D01*
X153652023Y-93719523D01*
X153652023Y-93624285D01*
X153604404Y-93529047D01*
X153509166Y-93481428D01*
X153271071Y-93481428D01*
X153175833Y-93433809D01*
X152747261Y-93814761D02*
X152652023Y-93862380D01*
X152461547Y-93862380D01*
X152366309Y-93814761D01*
X152318690Y-93719523D01*
X152318690Y-93671904D01*
X152366309Y-93576666D01*
X152461547Y-93529047D01*
X152604404Y-93529047D01*
X152699642Y-93481428D01*
X152747261Y-93386190D01*
X152747261Y-93338571D01*
X152699642Y-93243333D01*
X152604404Y-93195714D01*
X152461547Y-93195714D01*
X152366309Y-93243333D01*
X151509166Y-93814761D02*
X151604404Y-93862380D01*
X151794880Y-93862380D01*
X151890119Y-93814761D01*
X151937738Y-93719523D01*
X151937738Y-93338571D01*
X151890119Y-93243333D01*
X151794880Y-93195714D01*
X151604404Y-93195714D01*
X151509166Y-93243333D01*
X151461547Y-93338571D01*
X151461547Y-93433809D01*
X151937738Y-93529047D01*
X150604404Y-93862380D02*
X150604404Y-92862380D01*
X150604404Y-93814761D02*
X150699642Y-93862380D01*
X150890119Y-93862380D01*
X150985357Y-93814761D01*
X151032976Y-93767142D01*
X151080595Y-93671904D01*
X151080595Y-93386190D01*
X151032976Y-93290952D01*
X150985357Y-93243333D01*
X150890119Y-93195714D01*
X150699642Y-93195714D01*
X150604404Y-93243333D01*
X149223452Y-93862380D02*
X149318690Y-93814761D01*
X149366309Y-93767142D01*
X149413928Y-93671904D01*
X149413928Y-93386190D01*
X149366309Y-93290952D01*
X149318690Y-93243333D01*
X149223452Y-93195714D01*
X149080595Y-93195714D01*
X148985357Y-93243333D01*
X148937738Y-93290952D01*
X148890119Y-93386190D01*
X148890119Y-93671904D01*
X148937738Y-93767142D01*
X148985357Y-93814761D01*
X149080595Y-93862380D01*
X149223452Y-93862380D01*
X148461547Y-93195714D02*
X148461547Y-93862380D01*
X148461547Y-93290952D02*
X148413928Y-93243333D01*
X148318690Y-93195714D01*
X148175833Y-93195714D01*
X148080595Y-93243333D01*
X148032976Y-93338571D01*
X148032976Y-93862380D01*
X146794880Y-93862380D02*
X146794880Y-92862380D01*
X146366309Y-93862380D02*
X146366309Y-93338571D01*
X146413928Y-93243333D01*
X146509166Y-93195714D01*
X146652023Y-93195714D01*
X146747261Y-93243333D01*
X146794880Y-93290952D01*
X146032976Y-93195714D02*
X145652023Y-93195714D01*
X145890119Y-92862380D02*
X145890119Y-93719523D01*
X145842500Y-93814761D01*
X145747261Y-93862380D01*
X145652023Y-93862380D01*
X145461547Y-93195714D02*
X145080595Y-93195714D01*
X145318690Y-92862380D02*
X145318690Y-93719523D01*
X145271071Y-93814761D01*
X145175833Y-93862380D01*
X145080595Y-93862380D01*
X144747261Y-93195714D02*
X144747261Y-94195714D01*
X144747261Y-93243333D02*
X144652023Y-93195714D01*
X144461547Y-93195714D01*
X144366309Y-93243333D01*
X144318690Y-93290952D01*
X144271071Y-93386190D01*
X144271071Y-93671904D01*
X144318690Y-93767142D01*
X144366309Y-93814761D01*
X144461547Y-93862380D01*
X144652023Y-93862380D01*
X144747261Y-93814761D01*
X143890119Y-93814761D02*
X143794880Y-93862380D01*
X143604404Y-93862380D01*
X143509166Y-93814761D01*
X143461547Y-93719523D01*
X143461547Y-93671904D01*
X143509166Y-93576666D01*
X143604404Y-93529047D01*
X143747261Y-93529047D01*
X143842500Y-93481428D01*
X143890119Y-93386190D01*
X143890119Y-93338571D01*
X143842500Y-93243333D01*
X143747261Y-93195714D01*
X143604404Y-93195714D01*
X143509166Y-93243333D01*
X143032976Y-93767142D02*
X142985357Y-93814761D01*
X143032976Y-93862380D01*
X143080595Y-93814761D01*
X143032976Y-93767142D01*
X143032976Y-93862380D01*
X143032976Y-93243333D02*
X142985357Y-93290952D01*
X143032976Y-93338571D01*
X143080595Y-93290952D01*
X143032976Y-93243333D01*
X143032976Y-93338571D01*
X141842500Y-92814761D02*
X142699642Y-94100476D01*
X140794880Y-92814761D02*
X141652023Y-94100476D01*
X140461547Y-93862380D02*
X140461547Y-93195714D01*
X140461547Y-93290952D02*
X140413928Y-93243333D01*
X140318690Y-93195714D01*
X140175833Y-93195714D01*
X140080595Y-93243333D01*
X140032976Y-93338571D01*
X140032976Y-93862380D01*
X140032976Y-93338571D02*
X139985357Y-93243333D01*
X139890119Y-93195714D01*
X139747261Y-93195714D01*
X139652023Y-93243333D01*
X139604404Y-93338571D01*
X139604404Y-93862380D01*
X138699642Y-93862380D02*
X138699642Y-93338571D01*
X138747261Y-93243333D01*
X138842500Y-93195714D01*
X139032976Y-93195714D01*
X139128214Y-93243333D01*
X138699642Y-93814761D02*
X138794880Y-93862380D01*
X139032976Y-93862380D01*
X139128214Y-93814761D01*
X139175833Y-93719523D01*
X139175833Y-93624285D01*
X139128214Y-93529047D01*
X139032976Y-93481428D01*
X138794880Y-93481428D01*
X138699642Y-93433809D01*
X138223452Y-93862380D02*
X138223452Y-92862380D01*
X138128214Y-93481428D02*
X137842500Y-93862380D01*
X137842500Y-93195714D02*
X138223452Y-93576666D01*
X137413928Y-93862380D02*
X137413928Y-93195714D01*
X137413928Y-93386190D02*
X137366309Y-93290952D01*
X137318690Y-93243333D01*
X137223452Y-93195714D01*
X137128214Y-93195714D01*
X136794880Y-93767142D02*
X136747261Y-93814761D01*
X136794880Y-93862380D01*
X136842500Y-93814761D01*
X136794880Y-93767142D01*
X136794880Y-93862380D01*
X136413928Y-93195714D02*
X135890119Y-93195714D01*
X136413928Y-93862380D01*
X135890119Y-93862380D01*
X135366309Y-93862380D02*
X135461547Y-93814761D01*
X135509166Y-93767142D01*
X135556785Y-93671904D01*
X135556785Y-93386190D01*
X135509166Y-93290952D01*
X135461547Y-93243333D01*
X135366309Y-93195714D01*
X135223452Y-93195714D01*
X135128214Y-93243333D01*
X135080595Y-93290952D01*
X135032976Y-93386190D01*
X135032976Y-93671904D01*
X135080595Y-93767142D01*
X135128214Y-93814761D01*
X135223452Y-93862380D01*
X135366309Y-93862380D01*
X134604404Y-93195714D02*
X134604404Y-93862380D01*
X134604404Y-93290952D02*
X134556785Y-93243333D01*
X134461547Y-93195714D01*
X134318690Y-93195714D01*
X134223452Y-93243333D01*
X134175833Y-93338571D01*
X134175833Y-93862380D01*
X133318690Y-93814761D02*
X133413928Y-93862380D01*
X133604404Y-93862380D01*
X133699642Y-93814761D01*
X133747261Y-93719523D01*
X133747261Y-93338571D01*
X133699642Y-93243333D01*
X133604404Y-93195714D01*
X133413928Y-93195714D01*
X133318690Y-93243333D01*
X133271071Y-93338571D01*
X133271071Y-93433809D01*
X133747261Y-93529047D01*
X132128214Y-92814761D02*
X132985357Y-94100476D01*
X131652023Y-93862380D02*
X131747261Y-93814761D01*
X131794880Y-93767142D01*
X131842500Y-93671904D01*
X131842500Y-93386190D01*
X131794880Y-93290952D01*
X131747261Y-93243333D01*
X131652023Y-93195714D01*
X131509166Y-93195714D01*
X131413928Y-93243333D01*
X131366309Y-93290952D01*
X131318690Y-93386190D01*
X131318690Y-93671904D01*
X131366309Y-93767142D01*
X131413928Y-93814761D01*
X131509166Y-93862380D01*
X131652023Y-93862380D01*
X130890119Y-93195714D02*
X130890119Y-94195714D01*
X130890119Y-93243333D02*
X130794880Y-93195714D01*
X130604404Y-93195714D01*
X130509166Y-93243333D01*
X130461547Y-93290952D01*
X130413928Y-93386190D01*
X130413928Y-93671904D01*
X130461547Y-93767142D01*
X130509166Y-93814761D01*
X130604404Y-93862380D01*
X130794880Y-93862380D01*
X130890119Y-93814761D01*
X129604404Y-93814761D02*
X129699642Y-93862380D01*
X129890119Y-93862380D01*
X129985357Y-93814761D01*
X130032976Y-93719523D01*
X130032976Y-93338571D01*
X129985357Y-93243333D01*
X129890119Y-93195714D01*
X129699642Y-93195714D01*
X129604404Y-93243333D01*
X129556785Y-93338571D01*
X129556785Y-93433809D01*
X130032976Y-93529047D01*
X129128214Y-93195714D02*
X129128214Y-93862380D01*
X129128214Y-93290952D02*
X129080595Y-93243333D01*
X128985357Y-93195714D01*
X128842500Y-93195714D01*
X128747261Y-93243333D01*
X128699642Y-93338571D01*
X128699642Y-93862380D01*
X128223452Y-93195714D02*
X128223452Y-94195714D01*
X128223452Y-93243333D02*
X128128214Y-93195714D01*
X127937738Y-93195714D01*
X127842500Y-93243333D01*
X127794880Y-93290952D01*
X127747261Y-93386190D01*
X127747261Y-93671904D01*
X127794880Y-93767142D01*
X127842500Y-93814761D01*
X127937738Y-93862380D01*
X128128214Y-93862380D01*
X128223452Y-93814761D01*
X127318690Y-93195714D02*
X127318690Y-93862380D01*
X127318690Y-93290952D02*
X127271071Y-93243333D01*
X127175833Y-93195714D01*
X127032976Y-93195714D01*
X126937738Y-93243333D01*
X126890119Y-93338571D01*
X126890119Y-93862380D01*
X126413928Y-93195714D02*
X126413928Y-94195714D01*
X126413928Y-93243333D02*
X126318690Y-93195714D01*
X126128214Y-93195714D01*
X126032976Y-93243333D01*
X125985357Y-93290952D01*
X125937738Y-93386190D01*
X125937738Y-93671904D01*
X125985357Y-93767142D01*
X126032976Y-93814761D01*
X126128214Y-93862380D01*
X126318690Y-93862380D01*
X126413928Y-93814761D01*
X125509166Y-93481428D02*
X124747261Y-93481428D01*
X123842500Y-93862380D02*
X123842500Y-93338571D01*
X123890119Y-93243333D01*
X123985357Y-93195714D01*
X124175833Y-93195714D01*
X124271071Y-93243333D01*
X123842500Y-93814761D02*
X123937738Y-93862380D01*
X124175833Y-93862380D01*
X124271071Y-93814761D01*
X124318690Y-93719523D01*
X124318690Y-93624285D01*
X124271071Y-93529047D01*
X124175833Y-93481428D01*
X123937738Y-93481428D01*
X123842500Y-93433809D01*
X122937738Y-93862380D02*
X122937738Y-92862380D01*
X122937738Y-93814761D02*
X123032976Y-93862380D01*
X123223452Y-93862380D01*
X123318690Y-93814761D01*
X123366309Y-93767142D01*
X123413928Y-93671904D01*
X123413928Y-93386190D01*
X123366309Y-93290952D01*
X123318690Y-93243333D01*
X123223452Y-93195714D01*
X123032976Y-93195714D01*
X122937738Y-93243333D01*
X122556785Y-93195714D02*
X122318690Y-93862380D01*
X122080595Y-93195714D01*
X121271071Y-93862380D02*
X121271071Y-93338571D01*
X121318690Y-93243333D01*
X121413928Y-93195714D01*
X121604404Y-93195714D01*
X121699642Y-93243333D01*
X121271071Y-93814761D02*
X121366309Y-93862380D01*
X121604404Y-93862380D01*
X121699642Y-93814761D01*
X121747261Y-93719523D01*
X121747261Y-93624285D01*
X121699642Y-93529047D01*
X121604404Y-93481428D01*
X121366309Y-93481428D01*
X121271071Y-93433809D01*
X120794880Y-93195714D02*
X120794880Y-93862380D01*
X120794880Y-93290952D02*
X120747261Y-93243333D01*
X120652023Y-93195714D01*
X120509166Y-93195714D01*
X120413928Y-93243333D01*
X120366309Y-93338571D01*
X120366309Y-93862380D01*
X119461547Y-93814761D02*
X119556785Y-93862380D01*
X119747261Y-93862380D01*
X119842500Y-93814761D01*
X119890119Y-93767142D01*
X119937738Y-93671904D01*
X119937738Y-93386190D01*
X119890119Y-93290952D01*
X119842500Y-93243333D01*
X119747261Y-93195714D01*
X119556785Y-93195714D01*
X119461547Y-93243333D01*
X118652023Y-93814761D02*
X118747261Y-93862380D01*
X118937738Y-93862380D01*
X119032976Y-93814761D01*
X119080595Y-93719523D01*
X119080595Y-93338571D01*
X119032976Y-93243333D01*
X118937738Y-93195714D01*
X118747261Y-93195714D01*
X118652023Y-93243333D01*
X118604404Y-93338571D01*
X118604404Y-93433809D01*
X119080595Y-93529047D01*
X117747261Y-93862380D02*
X117747261Y-92862380D01*
X117747261Y-93814761D02*
X117842500Y-93862380D01*
X118032976Y-93862380D01*
X118128214Y-93814761D01*
X118175833Y-93767142D01*
X118223452Y-93671904D01*
X118223452Y-93386190D01*
X118175833Y-93290952D01*
X118128214Y-93243333D01*
X118032976Y-93195714D01*
X117842500Y-93195714D01*
X117747261Y-93243333D01*
X117271071Y-93481428D02*
X116509166Y-93481428D01*
X116128214Y-93195714D02*
X115890119Y-93862380D01*
X115652023Y-93195714D01*
X114842500Y-93862380D02*
X114842500Y-93338571D01*
X114890119Y-93243333D01*
X114985357Y-93195714D01*
X115175833Y-93195714D01*
X115271071Y-93243333D01*
X114842500Y-93814761D02*
X114937738Y-93862380D01*
X115175833Y-93862380D01*
X115271071Y-93814761D01*
X115318690Y-93719523D01*
X115318690Y-93624285D01*
X115271071Y-93529047D01*
X115175833Y-93481428D01*
X114937738Y-93481428D01*
X114842500Y-93433809D01*
X113937738Y-93814761D02*
X114032976Y-93862380D01*
X114223452Y-93862380D01*
X114318690Y-93814761D01*
X114366309Y-93767142D01*
X114413928Y-93671904D01*
X114413928Y-93386190D01*
X114366309Y-93290952D01*
X114318690Y-93243333D01*
X114223452Y-93195714D01*
X114032976Y-93195714D01*
X113937738Y-93243333D01*
X113080595Y-93195714D02*
X113080595Y-93862380D01*
X113509166Y-93195714D02*
X113509166Y-93719523D01*
X113461547Y-93814761D01*
X113366309Y-93862380D01*
X113223452Y-93862380D01*
X113128214Y-93814761D01*
X113080595Y-93767142D01*
X112175833Y-93195714D02*
X112175833Y-93862380D01*
X112604404Y-93195714D02*
X112604404Y-93719523D01*
X112556785Y-93814761D01*
X112461547Y-93862380D01*
X112318690Y-93862380D01*
X112223452Y-93814761D01*
X112175833Y-93767142D01*
X111699642Y-93862380D02*
X111699642Y-93195714D01*
X111699642Y-93290952D02*
X111652023Y-93243333D01*
X111556785Y-93195714D01*
X111413928Y-93195714D01*
X111318690Y-93243333D01*
X111271071Y-93338571D01*
X111271071Y-93862380D01*
X111271071Y-93338571D02*
X111223452Y-93243333D01*
X111128214Y-93195714D01*
X110985357Y-93195714D01*
X110890119Y-93243333D01*
X110842500Y-93338571D01*
X110842500Y-93862380D01*
X143175833Y-95131428D02*
X142413928Y-95131428D01*
X141985357Y-95464761D02*
X141890119Y-95512380D01*
X141699642Y-95512380D01*
X141604404Y-95464761D01*
X141556785Y-95369523D01*
X141556785Y-95321904D01*
X141604404Y-95226666D01*
X141699642Y-95179047D01*
X141842500Y-95179047D01*
X141937738Y-95131428D01*
X141985357Y-95036190D01*
X141985357Y-94988571D01*
X141937738Y-94893333D01*
X141842500Y-94845714D01*
X141699642Y-94845714D01*
X141604404Y-94893333D01*
X140747261Y-95464761D02*
X140842500Y-95512380D01*
X141032976Y-95512380D01*
X141128214Y-95464761D01*
X141175833Y-95369523D01*
X141175833Y-94988571D01*
X141128214Y-94893333D01*
X141032976Y-94845714D01*
X140842500Y-94845714D01*
X140747261Y-94893333D01*
X140699642Y-94988571D01*
X140699642Y-95083809D01*
X141175833Y-95179047D01*
X140271071Y-94845714D02*
X140271071Y-95512380D01*
X140271071Y-94940952D02*
X140223452Y-94893333D01*
X140128214Y-94845714D01*
X139985357Y-94845714D01*
X139890119Y-94893333D01*
X139842500Y-94988571D01*
X139842500Y-95512380D01*
X139413928Y-95464761D02*
X139318690Y-95512380D01*
X139128214Y-95512380D01*
X139032976Y-95464761D01*
X138985357Y-95369523D01*
X138985357Y-95321904D01*
X139032976Y-95226666D01*
X139128214Y-95179047D01*
X139271071Y-95179047D01*
X139366309Y-95131428D01*
X139413928Y-95036190D01*
X139413928Y-94988571D01*
X139366309Y-94893333D01*
X139271071Y-94845714D01*
X139128214Y-94845714D01*
X139032976Y-94893333D01*
X138556785Y-95512380D02*
X138556785Y-94845714D01*
X138556785Y-94512380D02*
X138604404Y-94560000D01*
X138556785Y-94607619D01*
X138509166Y-94560000D01*
X138556785Y-94512380D01*
X138556785Y-94607619D01*
X138080595Y-94845714D02*
X138080595Y-95512380D01*
X138080595Y-94940952D02*
X138032976Y-94893333D01*
X137937738Y-94845714D01*
X137794880Y-94845714D01*
X137699642Y-94893333D01*
X137652023Y-94988571D01*
X137652023Y-95512380D01*
X136747261Y-94845714D02*
X136747261Y-95655238D01*
X136794880Y-95750476D01*
X136842500Y-95798095D01*
X136937738Y-95845714D01*
X137080595Y-95845714D01*
X137175833Y-95798095D01*
X136747261Y-95464761D02*
X136842500Y-95512380D01*
X137032976Y-95512380D01*
X137128214Y-95464761D01*
X137175833Y-95417142D01*
X137223452Y-95321904D01*
X137223452Y-95036190D01*
X137175833Y-94940952D01*
X137128214Y-94893333D01*
X137032976Y-94845714D01*
X136842500Y-94845714D01*
X136747261Y-94893333D01*
X136271071Y-95131428D02*
X135509166Y-95131428D01*
X135032976Y-94845714D02*
X135032976Y-95845714D01*
X135032976Y-94893333D02*
X134937738Y-94845714D01*
X134747261Y-94845714D01*
X134652023Y-94893333D01*
X134604404Y-94940952D01*
X134556785Y-95036190D01*
X134556785Y-95321904D01*
X134604404Y-95417142D01*
X134652023Y-95464761D01*
X134747261Y-95512380D01*
X134937738Y-95512380D01*
X135032976Y-95464761D01*
X133699642Y-95512380D02*
X133699642Y-94988571D01*
X133747261Y-94893333D01*
X133842500Y-94845714D01*
X134032976Y-94845714D01*
X134128214Y-94893333D01*
X133699642Y-95464761D02*
X133794880Y-95512380D01*
X134032976Y-95512380D01*
X134128214Y-95464761D01*
X134175833Y-95369523D01*
X134175833Y-95274285D01*
X134128214Y-95179047D01*
X134032976Y-95131428D01*
X133794880Y-95131428D01*
X133699642Y-95083809D01*
X133223452Y-95512380D02*
X133223452Y-94845714D01*
X133223452Y-95036190D02*
X133175833Y-94940952D01*
X133128214Y-94893333D01*
X133032976Y-94845714D01*
X132937738Y-94845714D01*
X132747261Y-94845714D02*
X132366309Y-94845714D01*
X132604404Y-94512380D02*
X132604404Y-95369523D01*
X132556785Y-95464761D01*
X132461547Y-95512380D01*
X132366309Y-95512380D01*
X132032976Y-95131428D02*
X131271071Y-95131428D01*
X130652023Y-95512380D02*
X130747261Y-95464761D01*
X130794880Y-95417142D01*
X130842500Y-95321904D01*
X130842500Y-95036190D01*
X130794880Y-94940952D01*
X130747261Y-94893333D01*
X130652023Y-94845714D01*
X130509166Y-94845714D01*
X130413928Y-94893333D01*
X130366309Y-94940952D01*
X130318690Y-95036190D01*
X130318690Y-95321904D01*
X130366309Y-95417142D01*
X130413928Y-95464761D01*
X130509166Y-95512380D01*
X130652023Y-95512380D01*
X129890119Y-94845714D02*
X129890119Y-95512380D01*
X129890119Y-94940952D02*
X129842500Y-94893333D01*
X129747261Y-94845714D01*
X129604404Y-94845714D01*
X129509166Y-94893333D01*
X129461547Y-94988571D01*
X129461547Y-95512380D01*
X128985357Y-95131428D02*
X128223452Y-95131428D01*
X127747261Y-94845714D02*
X127747261Y-95845714D01*
X127747261Y-94893333D02*
X127652023Y-94845714D01*
X127461547Y-94845714D01*
X127366309Y-94893333D01*
X127318690Y-94940952D01*
X127271071Y-95036190D01*
X127271071Y-95321904D01*
X127318690Y-95417142D01*
X127366309Y-95464761D01*
X127461547Y-95512380D01*
X127652023Y-95512380D01*
X127747261Y-95464761D01*
X126413928Y-95512380D02*
X126413928Y-94988571D01*
X126461547Y-94893333D01*
X126556785Y-94845714D01*
X126747261Y-94845714D01*
X126842500Y-94893333D01*
X126413928Y-95464761D02*
X126509166Y-95512380D01*
X126747261Y-95512380D01*
X126842500Y-95464761D01*
X126890119Y-95369523D01*
X126890119Y-95274285D01*
X126842500Y-95179047D01*
X126747261Y-95131428D01*
X126509166Y-95131428D01*
X126413928Y-95083809D01*
X125937738Y-95512380D02*
X125937738Y-94845714D01*
X125937738Y-95036190D02*
X125890119Y-94940952D01*
X125842500Y-94893333D01*
X125747261Y-94845714D01*
X125652023Y-94845714D01*
X125461547Y-94845714D02*
X125080595Y-94845714D01*
X125318690Y-94512380D02*
X125318690Y-95369523D01*
X125271071Y-95464761D01*
X125175833Y-95512380D01*
X125080595Y-95512380D01*
X124747261Y-95131428D02*
X123985357Y-95131428D01*
X123366309Y-95512380D02*
X123461547Y-95464761D01*
X123509166Y-95417142D01*
X123556785Y-95321904D01*
X123556785Y-95036190D01*
X123509166Y-94940952D01*
X123461547Y-94893333D01*
X123366309Y-94845714D01*
X123223452Y-94845714D01*
X123128214Y-94893333D01*
X123080595Y-94940952D01*
X123032976Y-95036190D01*
X123032976Y-95321904D01*
X123080595Y-95417142D01*
X123128214Y-95464761D01*
X123223452Y-95512380D01*
X123366309Y-95512380D01*
X122747261Y-94845714D02*
X122366309Y-94845714D01*
X122604404Y-95512380D02*
X122604404Y-94655238D01*
X122556785Y-94560000D01*
X122461547Y-94512380D01*
X122366309Y-94512380D01*
X122175833Y-94845714D02*
X121794880Y-94845714D01*
X122032976Y-95512380D02*
X122032976Y-94655238D01*
X121985357Y-94560000D01*
X121890119Y-94512380D01*
X121794880Y-94512380D01*
X121461547Y-95131428D02*
X120699642Y-95131428D01*
X119794880Y-95512380D02*
X119794880Y-94512380D01*
X119794880Y-95464761D02*
X119890119Y-95512380D01*
X120080595Y-95512380D01*
X120175833Y-95464761D01*
X120223452Y-95417142D01*
X120271071Y-95321904D01*
X120271071Y-95036190D01*
X120223452Y-94940952D01*
X120175833Y-94893333D01*
X120080595Y-94845714D01*
X119890119Y-94845714D01*
X119794880Y-94893333D01*
X118937738Y-95464761D02*
X119032976Y-95512380D01*
X119223452Y-95512380D01*
X119318690Y-95464761D01*
X119366309Y-95369523D01*
X119366309Y-94988571D01*
X119318690Y-94893333D01*
X119223452Y-94845714D01*
X119032976Y-94845714D01*
X118937738Y-94893333D01*
X118890119Y-94988571D01*
X118890119Y-95083809D01*
X119366309Y-95179047D01*
X118604404Y-94845714D02*
X118223452Y-94845714D01*
X118461547Y-94512380D02*
X118461547Y-95369523D01*
X118413928Y-95464761D01*
X118318690Y-95512380D01*
X118223452Y-95512380D01*
X117509166Y-95464761D02*
X117604404Y-95512380D01*
X117794880Y-95512380D01*
X117890119Y-95464761D01*
X117937738Y-95369523D01*
X117937738Y-94988571D01*
X117890119Y-94893333D01*
X117794880Y-94845714D01*
X117604404Y-94845714D01*
X117509166Y-94893333D01*
X117461547Y-94988571D01*
X117461547Y-95083809D01*
X117937738Y-95179047D01*
X116604404Y-95464761D02*
X116699642Y-95512380D01*
X116890119Y-95512380D01*
X116985357Y-95464761D01*
X117032976Y-95417142D01*
X117080595Y-95321904D01*
X117080595Y-95036190D01*
X117032976Y-94940952D01*
X116985357Y-94893333D01*
X116890119Y-94845714D01*
X116699642Y-94845714D01*
X116604404Y-94893333D01*
X116318690Y-94845714D02*
X115937738Y-94845714D01*
X116175833Y-94512380D02*
X116175833Y-95369523D01*
X116128214Y-95464761D01*
X116032976Y-95512380D01*
X115937738Y-95512380D01*
X114890119Y-94464761D02*
X115747261Y-95750476D01*
X114128214Y-94845714D02*
X114128214Y-95512380D01*
X114366309Y-94464761D02*
X114604404Y-95179047D01*
X113985357Y-95179047D01*
X113652023Y-94607619D02*
X113604404Y-94560000D01*
X113509166Y-94512380D01*
X113271071Y-94512380D01*
X113175833Y-94560000D01*
X113128214Y-94607619D01*
X113080595Y-94702857D01*
X113080595Y-94798095D01*
X113128214Y-94940952D01*
X113699642Y-95512380D01*
X113080595Y-95512380D01*
X112128214Y-95512380D02*
X112699642Y-95512380D01*
X112413928Y-95512380D02*
X112413928Y-94512380D01*
X112509166Y-94655238D01*
X112604404Y-94750476D01*
X112699642Y-94798095D01*
X110985357Y-94464761D02*
X111842500Y-95750476D01*
X154747261Y-99462380D02*
X154175833Y-99462380D01*
X154461547Y-100462380D02*
X154461547Y-99462380D01*
X153842500Y-100462380D02*
X153842500Y-99462380D01*
X153413928Y-100462380D02*
X153413928Y-99938571D01*
X153461547Y-99843333D01*
X153556785Y-99795714D01*
X153699642Y-99795714D01*
X153794880Y-99843333D01*
X153842500Y-99890952D01*
X152509166Y-100462380D02*
X152509166Y-99938571D01*
X152556785Y-99843333D01*
X152652023Y-99795714D01*
X152842500Y-99795714D01*
X152937738Y-99843333D01*
X152509166Y-100414761D02*
X152604404Y-100462380D01*
X152842500Y-100462380D01*
X152937738Y-100414761D01*
X152985357Y-100319523D01*
X152985357Y-100224285D01*
X152937738Y-100129047D01*
X152842500Y-100081428D01*
X152604404Y-100081428D01*
X152509166Y-100033809D01*
X152032976Y-99795714D02*
X152032976Y-100462380D01*
X152032976Y-99890952D02*
X151985357Y-99843333D01*
X151890119Y-99795714D01*
X151747261Y-99795714D01*
X151652023Y-99843333D01*
X151604404Y-99938571D01*
X151604404Y-100462380D01*
X151128214Y-100462380D02*
X151128214Y-99462380D01*
X151032976Y-100081428D02*
X150747261Y-100462380D01*
X150747261Y-99795714D02*
X151128214Y-100176666D01*
X150366309Y-100414761D02*
X150271071Y-100462380D01*
X150080595Y-100462380D01*
X149985357Y-100414761D01*
X149937738Y-100319523D01*
X149937738Y-100271904D01*
X149985357Y-100176666D01*
X150080595Y-100129047D01*
X150223452Y-100129047D01*
X150318690Y-100081428D01*
X150366309Y-99986190D01*
X150366309Y-99938571D01*
X150318690Y-99843333D01*
X150223452Y-99795714D01*
X150080595Y-99795714D01*
X149985357Y-99843333D01*
X148747261Y-100462380D02*
X148747261Y-99462380D01*
X148413928Y-100176666D01*
X148080595Y-99462380D01*
X148080595Y-100462380D01*
X147175833Y-100462380D02*
X147175833Y-99938571D01*
X147223452Y-99843333D01*
X147318690Y-99795714D01*
X147509166Y-99795714D01*
X147604404Y-99843333D01*
X147175833Y-100414761D02*
X147271071Y-100462380D01*
X147509166Y-100462380D01*
X147604404Y-100414761D01*
X147652023Y-100319523D01*
X147652023Y-100224285D01*
X147604404Y-100129047D01*
X147509166Y-100081428D01*
X147271071Y-100081428D01*
X147175833Y-100033809D01*
X146699642Y-100462380D02*
X146699642Y-99795714D01*
X146699642Y-99986190D02*
X146652023Y-99890952D01*
X146604404Y-99843333D01*
X146509166Y-99795714D01*
X146413928Y-99795714D01*
X146080595Y-100462380D02*
X146080595Y-99462380D01*
X145985357Y-100081428D02*
X145699642Y-100462380D01*
X145699642Y-99795714D02*
X146080595Y-100176666D01*
X145271071Y-100367142D02*
X145223452Y-100414761D01*
X145271071Y-100462380D01*
X145318690Y-100414761D01*
X145271071Y-100367142D01*
X145271071Y-100462380D01*
X145271071Y-100081428D02*
X145318690Y-99510000D01*
X145271071Y-99462380D01*
X145223452Y-99510000D01*
X145271071Y-100081428D01*
X145271071Y-99462380D01*
M02*
