%TF.GenerationSoftware,KiCad,Pcbnew,(5.1.6)-1*%
%TF.CreationDate,2020-09-14T19:28:27+02:00*%
%TF.ProjectId,vacuumSensor,76616375-756d-4536-956e-736f722e6b69,rev?*%
%TF.SameCoordinates,Original*%
%TF.FileFunction,Legend,Top*%
%TF.FilePolarity,Positive*%
%FSLAX46Y46*%
G04 Gerber Fmt 4.6, Leading zero omitted, Abs format (unit mm)*
G04 Created by KiCad (PCBNEW (5.1.6)-1) date 2020-09-14 19:28:27*
%MOMM*%
%LPD*%
G01*
G04 APERTURE LIST*
%ADD10C,0.120000*%
%ADD11C,0.150000*%
G04 APERTURE END LIST*
D10*
%TO.C,J1*%
X110550000Y-92650000D02*
X107890000Y-92650000D01*
X110550000Y-97790000D02*
X110550000Y-92650000D01*
X107890000Y-97790000D02*
X107890000Y-92650000D01*
X110550000Y-97790000D02*
X107890000Y-97790000D01*
X110550000Y-99060000D02*
X110550000Y-100390000D01*
X110550000Y-100390000D02*
X109220000Y-100390000D01*
%TO.C,U2*%
X121920000Y-93325000D02*
X119970000Y-93325000D01*
X121920000Y-93325000D02*
X123870000Y-93325000D01*
X121920000Y-98445000D02*
X119970000Y-98445000D01*
X121920000Y-98445000D02*
X125370000Y-98445000D01*
%TO.C,R6*%
X113827779Y-95125000D02*
X113502221Y-95125000D01*
X113827779Y-94105000D02*
X113502221Y-94105000D01*
%TO.C,R5*%
X115695000Y-94142779D02*
X115695000Y-93817221D01*
X116715000Y-94142779D02*
X116715000Y-93817221D01*
%TO.C,R4*%
X119852221Y-90930000D02*
X120177779Y-90930000D01*
X119852221Y-91950000D02*
X120177779Y-91950000D01*
%TO.C,R3*%
X123987779Y-100205000D02*
X123662221Y-100205000D01*
X123987779Y-99185000D02*
X123662221Y-99185000D01*
%TO.C,R2*%
X126490000Y-97317779D02*
X126490000Y-96992221D01*
X127510000Y-97317779D02*
X127510000Y-96992221D01*
%TO.C,R1*%
X126490000Y-94142779D02*
X126490000Y-93817221D01*
X127510000Y-94142779D02*
X127510000Y-93817221D01*
%TO.C,C1*%
X115695000Y-97317779D02*
X115695000Y-96992221D01*
X116715000Y-97317779D02*
X116715000Y-96992221D01*
%TO.C,U1*%
X132715000Y-91440000D02*
X145415000Y-91440000D01*
X145415000Y-91440000D02*
X145415000Y-101600000D01*
X145415000Y-101600000D02*
X132715000Y-101600000D01*
X132715000Y-101600000D02*
X132715000Y-91440000D01*
X132715000Y-92710000D02*
X133985000Y-91440000D01*
%TO.C,J1*%
D11*
X108886666Y-100842380D02*
X108886666Y-101556666D01*
X108839047Y-101699523D01*
X108743809Y-101794761D01*
X108600952Y-101842380D01*
X108505714Y-101842380D01*
X109886666Y-101842380D02*
X109315238Y-101842380D01*
X109600952Y-101842380D02*
X109600952Y-100842380D01*
X109505714Y-100985238D01*
X109410476Y-101080476D01*
X109315238Y-101128095D01*
%TO.C,U2*%
X119888095Y-98737380D02*
X119888095Y-99546904D01*
X119935714Y-99642142D01*
X119983333Y-99689761D01*
X120078571Y-99737380D01*
X120269047Y-99737380D01*
X120364285Y-99689761D01*
X120411904Y-99642142D01*
X120459523Y-99546904D01*
X120459523Y-98737380D01*
X120888095Y-98832619D02*
X120935714Y-98785000D01*
X121030952Y-98737380D01*
X121269047Y-98737380D01*
X121364285Y-98785000D01*
X121411904Y-98832619D01*
X121459523Y-98927857D01*
X121459523Y-99023095D01*
X121411904Y-99165952D01*
X120840476Y-99737380D01*
X121459523Y-99737380D01*
%TO.C,R6*%
X113498333Y-96497380D02*
X113165000Y-96021190D01*
X112926904Y-96497380D02*
X112926904Y-95497380D01*
X113307857Y-95497380D01*
X113403095Y-95545000D01*
X113450714Y-95592619D01*
X113498333Y-95687857D01*
X113498333Y-95830714D01*
X113450714Y-95925952D01*
X113403095Y-95973571D01*
X113307857Y-96021190D01*
X112926904Y-96021190D01*
X114355476Y-95497380D02*
X114165000Y-95497380D01*
X114069761Y-95545000D01*
X114022142Y-95592619D01*
X113926904Y-95735476D01*
X113879285Y-95925952D01*
X113879285Y-96306904D01*
X113926904Y-96402142D01*
X113974523Y-96449761D01*
X114069761Y-96497380D01*
X114260238Y-96497380D01*
X114355476Y-96449761D01*
X114403095Y-96402142D01*
X114450714Y-96306904D01*
X114450714Y-96068809D01*
X114403095Y-95973571D01*
X114355476Y-95925952D01*
X114260238Y-95878333D01*
X114069761Y-95878333D01*
X113974523Y-95925952D01*
X113926904Y-95973571D01*
X113879285Y-96068809D01*
%TO.C,R5*%
X116657380Y-91606666D02*
X116181190Y-91940000D01*
X116657380Y-92178095D02*
X115657380Y-92178095D01*
X115657380Y-91797142D01*
X115705000Y-91701904D01*
X115752619Y-91654285D01*
X115847857Y-91606666D01*
X115990714Y-91606666D01*
X116085952Y-91654285D01*
X116133571Y-91701904D01*
X116181190Y-91797142D01*
X116181190Y-92178095D01*
X115657380Y-90701904D02*
X115657380Y-91178095D01*
X116133571Y-91225714D01*
X116085952Y-91178095D01*
X116038333Y-91082857D01*
X116038333Y-90844761D01*
X116085952Y-90749523D01*
X116133571Y-90701904D01*
X116228809Y-90654285D01*
X116466904Y-90654285D01*
X116562142Y-90701904D01*
X116609761Y-90749523D01*
X116657380Y-90844761D01*
X116657380Y-91082857D01*
X116609761Y-91178095D01*
X116562142Y-91225714D01*
%TO.C,R4*%
X122388333Y-91892380D02*
X122055000Y-91416190D01*
X121816904Y-91892380D02*
X121816904Y-90892380D01*
X122197857Y-90892380D01*
X122293095Y-90940000D01*
X122340714Y-90987619D01*
X122388333Y-91082857D01*
X122388333Y-91225714D01*
X122340714Y-91320952D01*
X122293095Y-91368571D01*
X122197857Y-91416190D01*
X121816904Y-91416190D01*
X123245476Y-91225714D02*
X123245476Y-91892380D01*
X123007380Y-90844761D02*
X122769285Y-91559047D01*
X123388333Y-91559047D01*
%TO.C,R3*%
X123658333Y-101577380D02*
X123325000Y-101101190D01*
X123086904Y-101577380D02*
X123086904Y-100577380D01*
X123467857Y-100577380D01*
X123563095Y-100625000D01*
X123610714Y-100672619D01*
X123658333Y-100767857D01*
X123658333Y-100910714D01*
X123610714Y-101005952D01*
X123563095Y-101053571D01*
X123467857Y-101101190D01*
X123086904Y-101101190D01*
X123991666Y-100577380D02*
X124610714Y-100577380D01*
X124277380Y-100958333D01*
X124420238Y-100958333D01*
X124515476Y-101005952D01*
X124563095Y-101053571D01*
X124610714Y-101148809D01*
X124610714Y-101386904D01*
X124563095Y-101482142D01*
X124515476Y-101529761D01*
X124420238Y-101577380D01*
X124134523Y-101577380D01*
X124039285Y-101529761D01*
X123991666Y-101482142D01*
%TO.C,R2*%
X127452380Y-99861666D02*
X126976190Y-100195000D01*
X127452380Y-100433095D02*
X126452380Y-100433095D01*
X126452380Y-100052142D01*
X126500000Y-99956904D01*
X126547619Y-99909285D01*
X126642857Y-99861666D01*
X126785714Y-99861666D01*
X126880952Y-99909285D01*
X126928571Y-99956904D01*
X126976190Y-100052142D01*
X126976190Y-100433095D01*
X126547619Y-99480714D02*
X126500000Y-99433095D01*
X126452380Y-99337857D01*
X126452380Y-99099761D01*
X126500000Y-99004523D01*
X126547619Y-98956904D01*
X126642857Y-98909285D01*
X126738095Y-98909285D01*
X126880952Y-98956904D01*
X127452380Y-99528333D01*
X127452380Y-98909285D01*
%TO.C,R1*%
X127452380Y-91606666D02*
X126976190Y-91940000D01*
X127452380Y-92178095D02*
X126452380Y-92178095D01*
X126452380Y-91797142D01*
X126500000Y-91701904D01*
X126547619Y-91654285D01*
X126642857Y-91606666D01*
X126785714Y-91606666D01*
X126880952Y-91654285D01*
X126928571Y-91701904D01*
X126976190Y-91797142D01*
X126976190Y-92178095D01*
X127452380Y-90654285D02*
X127452380Y-91225714D01*
X127452380Y-90940000D02*
X126452380Y-90940000D01*
X126595238Y-91035238D01*
X126690476Y-91130476D01*
X126738095Y-91225714D01*
%TO.C,C1*%
X116562142Y-99861666D02*
X116609761Y-99909285D01*
X116657380Y-100052142D01*
X116657380Y-100147380D01*
X116609761Y-100290238D01*
X116514523Y-100385476D01*
X116419285Y-100433095D01*
X116228809Y-100480714D01*
X116085952Y-100480714D01*
X115895476Y-100433095D01*
X115800238Y-100385476D01*
X115705000Y-100290238D01*
X115657380Y-100147380D01*
X115657380Y-100052142D01*
X115705000Y-99909285D01*
X115752619Y-99861666D01*
X116657380Y-98909285D02*
X116657380Y-99480714D01*
X116657380Y-99195000D02*
X115657380Y-99195000D01*
X115800238Y-99290238D01*
X115895476Y-99385476D01*
X115943095Y-99480714D01*
%TO.C,U1*%
X138303095Y-96472380D02*
X138303095Y-97281904D01*
X138350714Y-97377142D01*
X138398333Y-97424761D01*
X138493571Y-97472380D01*
X138684047Y-97472380D01*
X138779285Y-97424761D01*
X138826904Y-97377142D01*
X138874523Y-97281904D01*
X138874523Y-96472380D01*
X139874523Y-97472380D02*
X139303095Y-97472380D01*
X139588809Y-97472380D02*
X139588809Y-96472380D01*
X139493571Y-96615238D01*
X139398333Y-96710476D01*
X139303095Y-96758095D01*
%TD*%
M02*
