M48
; DRILL file {KiCad (5.1.6)-1} date 09/14/20 19:28:24
; FORMAT={-:-/ absolute / inch / decimal}
; #@! TF.CreationDate,2020-09-14T19:28:24+02:00
; #@! TF.GenerationSoftware,Kicad,Pcbnew,(5.1.6)-1
; #@! TF.FileFunction,Plated,1,2,PTH
FMAT,2
INCH
T1C0.0157
T2C0.0394
%
G90
G05
T1
X3.925Y-3.575
X3.925Y-4.025
X4.45Y-3.575
X4.45Y-4.025
X4.5Y-3.8
X4.775Y-3.875
X4.8Y-3.7
X4.825Y-3.6
X4.925Y-3.575
X4.925Y-4.025
X4.975Y-3.925
X5.05Y-3.8
X5.075Y-3.925
X5.275Y-3.85
X5.3Y-3.8
X5.475Y-3.575
X5.5Y-4.025
X6.125Y-3.575
X6.125Y-4.025
T2
X4.3Y-3.7
X4.3Y-3.8
X4.3Y-3.9
T0
M30
