%TF.GenerationSoftware,KiCad,Pcbnew,(5.1.6)-1*%
%TF.CreationDate,2020-09-14T19:28:27+02:00*%
%TF.ProjectId,vacuumSensor,76616375-756d-4536-956e-736f722e6b69,rev?*%
%TF.SameCoordinates,Original*%
%TF.FileFunction,Copper,L2,Bot*%
%TF.FilePolarity,Positive*%
%FSLAX46Y46*%
G04 Gerber Fmt 4.6, Leading zero omitted, Abs format (unit mm)*
G04 Created by KiCad (PCBNEW (5.1.6)-1) date 2020-09-14 19:28:27*
%MOMM*%
%LPD*%
G01*
G04 APERTURE LIST*
%TA.AperFunction,ComponentPad*%
%ADD10O,1.700000X1.700000*%
%TD*%
%TA.AperFunction,ComponentPad*%
%ADD11R,1.700000X1.700000*%
%TD*%
%TA.AperFunction,ViaPad*%
%ADD12C,0.800000*%
%TD*%
%TA.AperFunction,Conductor*%
%ADD13C,0.250000*%
%TD*%
%TA.AperFunction,Conductor*%
%ADD14C,0.254000*%
%TD*%
G04 APERTURE END LIST*
D10*
%TO.P,J1,3*%
%TO.N,GND*%
X109220000Y-93980000D03*
%TO.P,J1,2*%
%TO.N,/out*%
X109220000Y-96520000D03*
D11*
%TO.P,J1,1*%
%TO.N,VCC*%
X109220000Y-99060000D03*
%TD*%
D12*
%TO.N,GND*%
X99695000Y-90805000D03*
X99695000Y-102235000D03*
X155575000Y-90805000D03*
X155575000Y-102235000D03*
X113030000Y-102235000D03*
X113030000Y-90805000D03*
X139065000Y-90805000D03*
X139700000Y-102235000D03*
X125095000Y-102235000D03*
X125095000Y-90805000D03*
X114300000Y-96520000D03*
X128270000Y-96520000D03*
X126365000Y-99695000D03*
X121285000Y-98425000D03*
X121920000Y-93980000D03*
X133985000Y-97790000D03*
X122555000Y-91440000D03*
%TO.N,VCC*%
X128905000Y-99695000D03*
X134620000Y-96520000D03*
%TD*%
D13*
%TO.N,VCC*%
X128905000Y-99695000D02*
X132080000Y-96520000D01*
X132080000Y-96520000D02*
X134620000Y-96520000D01*
%TD*%
D14*
%TO.N,GND*%
G36*
X156185001Y-102845000D02*
G01*
X98450000Y-102845000D01*
X98450000Y-96299872D01*
X100000000Y-96299872D01*
X100000000Y-96740128D01*
X100085890Y-97171925D01*
X100254369Y-97578669D01*
X100498962Y-97944729D01*
X100810271Y-98256038D01*
X101176331Y-98500631D01*
X101583075Y-98669110D01*
X102014872Y-98755000D01*
X102455128Y-98755000D01*
X102886925Y-98669110D01*
X103293669Y-98500631D01*
X103659729Y-98256038D01*
X103705767Y-98210000D01*
X107731928Y-98210000D01*
X107731928Y-99910000D01*
X107744188Y-100034482D01*
X107780498Y-100154180D01*
X107839463Y-100264494D01*
X107918815Y-100361185D01*
X108015506Y-100440537D01*
X108125820Y-100499502D01*
X108245518Y-100535812D01*
X108370000Y-100548072D01*
X110070000Y-100548072D01*
X110194482Y-100535812D01*
X110314180Y-100499502D01*
X110424494Y-100440537D01*
X110521185Y-100361185D01*
X110600537Y-100264494D01*
X110659502Y-100154180D01*
X110695812Y-100034482D01*
X110708072Y-99910000D01*
X110708072Y-99593061D01*
X127870000Y-99593061D01*
X127870000Y-99796939D01*
X127909774Y-99996898D01*
X127987795Y-100185256D01*
X128101063Y-100354774D01*
X128245226Y-100498937D01*
X128414744Y-100612205D01*
X128603102Y-100690226D01*
X128803061Y-100730000D01*
X129006939Y-100730000D01*
X129206898Y-100690226D01*
X129395256Y-100612205D01*
X129564774Y-100498937D01*
X129708937Y-100354774D01*
X129822205Y-100185256D01*
X129900226Y-99996898D01*
X129940000Y-99796939D01*
X129940000Y-99734801D01*
X132394802Y-97280000D01*
X133916289Y-97280000D01*
X133960226Y-97323937D01*
X134129744Y-97437205D01*
X134318102Y-97515226D01*
X134518061Y-97555000D01*
X134721939Y-97555000D01*
X134921898Y-97515226D01*
X135110256Y-97437205D01*
X135279774Y-97323937D01*
X135423937Y-97179774D01*
X135537205Y-97010256D01*
X135615226Y-96821898D01*
X135655000Y-96621939D01*
X135655000Y-96418061D01*
X135631491Y-96299872D01*
X150165000Y-96299872D01*
X150165000Y-96740128D01*
X150250890Y-97171925D01*
X150419369Y-97578669D01*
X150663962Y-97944729D01*
X150975271Y-98256038D01*
X151341331Y-98500631D01*
X151748075Y-98669110D01*
X152179872Y-98755000D01*
X152620128Y-98755000D01*
X153051925Y-98669110D01*
X153458669Y-98500631D01*
X153824729Y-98256038D01*
X154136038Y-97944729D01*
X154380631Y-97578669D01*
X154549110Y-97171925D01*
X154635000Y-96740128D01*
X154635000Y-96299872D01*
X154549110Y-95868075D01*
X154380631Y-95461331D01*
X154136038Y-95095271D01*
X153824729Y-94783962D01*
X153458669Y-94539369D01*
X153051925Y-94370890D01*
X152620128Y-94285000D01*
X152179872Y-94285000D01*
X151748075Y-94370890D01*
X151341331Y-94539369D01*
X150975271Y-94783962D01*
X150663962Y-95095271D01*
X150419369Y-95461331D01*
X150250890Y-95868075D01*
X150165000Y-96299872D01*
X135631491Y-96299872D01*
X135615226Y-96218102D01*
X135537205Y-96029744D01*
X135423937Y-95860226D01*
X135279774Y-95716063D01*
X135110256Y-95602795D01*
X134921898Y-95524774D01*
X134721939Y-95485000D01*
X134518061Y-95485000D01*
X134318102Y-95524774D01*
X134129744Y-95602795D01*
X133960226Y-95716063D01*
X133916289Y-95760000D01*
X132117322Y-95760000D01*
X132079999Y-95756324D01*
X132042676Y-95760000D01*
X132042667Y-95760000D01*
X131931014Y-95770997D01*
X131787753Y-95814454D01*
X131655723Y-95885026D01*
X131572083Y-95953668D01*
X131539999Y-95979999D01*
X131516201Y-96008997D01*
X128865199Y-98660000D01*
X128803061Y-98660000D01*
X128603102Y-98699774D01*
X128414744Y-98777795D01*
X128245226Y-98891063D01*
X128101063Y-99035226D01*
X127987795Y-99204744D01*
X127909774Y-99393102D01*
X127870000Y-99593061D01*
X110708072Y-99593061D01*
X110708072Y-98210000D01*
X110695812Y-98085518D01*
X110659502Y-97965820D01*
X110600537Y-97855506D01*
X110521185Y-97758815D01*
X110424494Y-97679463D01*
X110314180Y-97620498D01*
X110241620Y-97598487D01*
X110373475Y-97466632D01*
X110535990Y-97223411D01*
X110647932Y-96953158D01*
X110705000Y-96666260D01*
X110705000Y-96373740D01*
X110647932Y-96086842D01*
X110535990Y-95816589D01*
X110373475Y-95573368D01*
X110166632Y-95366525D01*
X109984466Y-95244805D01*
X110101355Y-95175178D01*
X110317588Y-94980269D01*
X110491641Y-94746920D01*
X110616825Y-94484099D01*
X110661476Y-94336890D01*
X110540155Y-94107000D01*
X109347000Y-94107000D01*
X109347000Y-94127000D01*
X109093000Y-94127000D01*
X109093000Y-94107000D01*
X107899845Y-94107000D01*
X107778524Y-94336890D01*
X107823175Y-94484099D01*
X107948359Y-94746920D01*
X108122412Y-94980269D01*
X108338645Y-95175178D01*
X108455534Y-95244805D01*
X108273368Y-95366525D01*
X108066525Y-95573368D01*
X107904010Y-95816589D01*
X107792068Y-96086842D01*
X107735000Y-96373740D01*
X107735000Y-96666260D01*
X107792068Y-96953158D01*
X107904010Y-97223411D01*
X108066525Y-97466632D01*
X108198380Y-97598487D01*
X108125820Y-97620498D01*
X108015506Y-97679463D01*
X107918815Y-97758815D01*
X107839463Y-97855506D01*
X107780498Y-97965820D01*
X107744188Y-98085518D01*
X107731928Y-98210000D01*
X103705767Y-98210000D01*
X103971038Y-97944729D01*
X104215631Y-97578669D01*
X104384110Y-97171925D01*
X104470000Y-96740128D01*
X104470000Y-96299872D01*
X104384110Y-95868075D01*
X104215631Y-95461331D01*
X103971038Y-95095271D01*
X103659729Y-94783962D01*
X103293669Y-94539369D01*
X102886925Y-94370890D01*
X102455128Y-94285000D01*
X102014872Y-94285000D01*
X101583075Y-94370890D01*
X101176331Y-94539369D01*
X100810271Y-94783962D01*
X100498962Y-95095271D01*
X100254369Y-95461331D01*
X100085890Y-95868075D01*
X100000000Y-96299872D01*
X98450000Y-96299872D01*
X98450000Y-93623110D01*
X107778524Y-93623110D01*
X107899845Y-93853000D01*
X109093000Y-93853000D01*
X109093000Y-92659186D01*
X109347000Y-92659186D01*
X109347000Y-93853000D01*
X110540155Y-93853000D01*
X110661476Y-93623110D01*
X110616825Y-93475901D01*
X110491641Y-93213080D01*
X110317588Y-92979731D01*
X110101355Y-92784822D01*
X109851252Y-92635843D01*
X109576891Y-92538519D01*
X109347000Y-92659186D01*
X109093000Y-92659186D01*
X108863109Y-92538519D01*
X108588748Y-92635843D01*
X108338645Y-92784822D01*
X108122412Y-92979731D01*
X107948359Y-93213080D01*
X107823175Y-93475901D01*
X107778524Y-93623110D01*
X98450000Y-93623110D01*
X98450000Y-90195000D01*
X156185000Y-90195000D01*
X156185001Y-102845000D01*
G37*
X156185001Y-102845000D02*
X98450000Y-102845000D01*
X98450000Y-96299872D01*
X100000000Y-96299872D01*
X100000000Y-96740128D01*
X100085890Y-97171925D01*
X100254369Y-97578669D01*
X100498962Y-97944729D01*
X100810271Y-98256038D01*
X101176331Y-98500631D01*
X101583075Y-98669110D01*
X102014872Y-98755000D01*
X102455128Y-98755000D01*
X102886925Y-98669110D01*
X103293669Y-98500631D01*
X103659729Y-98256038D01*
X103705767Y-98210000D01*
X107731928Y-98210000D01*
X107731928Y-99910000D01*
X107744188Y-100034482D01*
X107780498Y-100154180D01*
X107839463Y-100264494D01*
X107918815Y-100361185D01*
X108015506Y-100440537D01*
X108125820Y-100499502D01*
X108245518Y-100535812D01*
X108370000Y-100548072D01*
X110070000Y-100548072D01*
X110194482Y-100535812D01*
X110314180Y-100499502D01*
X110424494Y-100440537D01*
X110521185Y-100361185D01*
X110600537Y-100264494D01*
X110659502Y-100154180D01*
X110695812Y-100034482D01*
X110708072Y-99910000D01*
X110708072Y-99593061D01*
X127870000Y-99593061D01*
X127870000Y-99796939D01*
X127909774Y-99996898D01*
X127987795Y-100185256D01*
X128101063Y-100354774D01*
X128245226Y-100498937D01*
X128414744Y-100612205D01*
X128603102Y-100690226D01*
X128803061Y-100730000D01*
X129006939Y-100730000D01*
X129206898Y-100690226D01*
X129395256Y-100612205D01*
X129564774Y-100498937D01*
X129708937Y-100354774D01*
X129822205Y-100185256D01*
X129900226Y-99996898D01*
X129940000Y-99796939D01*
X129940000Y-99734801D01*
X132394802Y-97280000D01*
X133916289Y-97280000D01*
X133960226Y-97323937D01*
X134129744Y-97437205D01*
X134318102Y-97515226D01*
X134518061Y-97555000D01*
X134721939Y-97555000D01*
X134921898Y-97515226D01*
X135110256Y-97437205D01*
X135279774Y-97323937D01*
X135423937Y-97179774D01*
X135537205Y-97010256D01*
X135615226Y-96821898D01*
X135655000Y-96621939D01*
X135655000Y-96418061D01*
X135631491Y-96299872D01*
X150165000Y-96299872D01*
X150165000Y-96740128D01*
X150250890Y-97171925D01*
X150419369Y-97578669D01*
X150663962Y-97944729D01*
X150975271Y-98256038D01*
X151341331Y-98500631D01*
X151748075Y-98669110D01*
X152179872Y-98755000D01*
X152620128Y-98755000D01*
X153051925Y-98669110D01*
X153458669Y-98500631D01*
X153824729Y-98256038D01*
X154136038Y-97944729D01*
X154380631Y-97578669D01*
X154549110Y-97171925D01*
X154635000Y-96740128D01*
X154635000Y-96299872D01*
X154549110Y-95868075D01*
X154380631Y-95461331D01*
X154136038Y-95095271D01*
X153824729Y-94783962D01*
X153458669Y-94539369D01*
X153051925Y-94370890D01*
X152620128Y-94285000D01*
X152179872Y-94285000D01*
X151748075Y-94370890D01*
X151341331Y-94539369D01*
X150975271Y-94783962D01*
X150663962Y-95095271D01*
X150419369Y-95461331D01*
X150250890Y-95868075D01*
X150165000Y-96299872D01*
X135631491Y-96299872D01*
X135615226Y-96218102D01*
X135537205Y-96029744D01*
X135423937Y-95860226D01*
X135279774Y-95716063D01*
X135110256Y-95602795D01*
X134921898Y-95524774D01*
X134721939Y-95485000D01*
X134518061Y-95485000D01*
X134318102Y-95524774D01*
X134129744Y-95602795D01*
X133960226Y-95716063D01*
X133916289Y-95760000D01*
X132117322Y-95760000D01*
X132079999Y-95756324D01*
X132042676Y-95760000D01*
X132042667Y-95760000D01*
X131931014Y-95770997D01*
X131787753Y-95814454D01*
X131655723Y-95885026D01*
X131572083Y-95953668D01*
X131539999Y-95979999D01*
X131516201Y-96008997D01*
X128865199Y-98660000D01*
X128803061Y-98660000D01*
X128603102Y-98699774D01*
X128414744Y-98777795D01*
X128245226Y-98891063D01*
X128101063Y-99035226D01*
X127987795Y-99204744D01*
X127909774Y-99393102D01*
X127870000Y-99593061D01*
X110708072Y-99593061D01*
X110708072Y-98210000D01*
X110695812Y-98085518D01*
X110659502Y-97965820D01*
X110600537Y-97855506D01*
X110521185Y-97758815D01*
X110424494Y-97679463D01*
X110314180Y-97620498D01*
X110241620Y-97598487D01*
X110373475Y-97466632D01*
X110535990Y-97223411D01*
X110647932Y-96953158D01*
X110705000Y-96666260D01*
X110705000Y-96373740D01*
X110647932Y-96086842D01*
X110535990Y-95816589D01*
X110373475Y-95573368D01*
X110166632Y-95366525D01*
X109984466Y-95244805D01*
X110101355Y-95175178D01*
X110317588Y-94980269D01*
X110491641Y-94746920D01*
X110616825Y-94484099D01*
X110661476Y-94336890D01*
X110540155Y-94107000D01*
X109347000Y-94107000D01*
X109347000Y-94127000D01*
X109093000Y-94127000D01*
X109093000Y-94107000D01*
X107899845Y-94107000D01*
X107778524Y-94336890D01*
X107823175Y-94484099D01*
X107948359Y-94746920D01*
X108122412Y-94980269D01*
X108338645Y-95175178D01*
X108455534Y-95244805D01*
X108273368Y-95366525D01*
X108066525Y-95573368D01*
X107904010Y-95816589D01*
X107792068Y-96086842D01*
X107735000Y-96373740D01*
X107735000Y-96666260D01*
X107792068Y-96953158D01*
X107904010Y-97223411D01*
X108066525Y-97466632D01*
X108198380Y-97598487D01*
X108125820Y-97620498D01*
X108015506Y-97679463D01*
X107918815Y-97758815D01*
X107839463Y-97855506D01*
X107780498Y-97965820D01*
X107744188Y-98085518D01*
X107731928Y-98210000D01*
X103705767Y-98210000D01*
X103971038Y-97944729D01*
X104215631Y-97578669D01*
X104384110Y-97171925D01*
X104470000Y-96740128D01*
X104470000Y-96299872D01*
X104384110Y-95868075D01*
X104215631Y-95461331D01*
X103971038Y-95095271D01*
X103659729Y-94783962D01*
X103293669Y-94539369D01*
X102886925Y-94370890D01*
X102455128Y-94285000D01*
X102014872Y-94285000D01*
X101583075Y-94370890D01*
X101176331Y-94539369D01*
X100810271Y-94783962D01*
X100498962Y-95095271D01*
X100254369Y-95461331D01*
X100085890Y-95868075D01*
X100000000Y-96299872D01*
X98450000Y-96299872D01*
X98450000Y-93623110D01*
X107778524Y-93623110D01*
X107899845Y-93853000D01*
X109093000Y-93853000D01*
X109093000Y-92659186D01*
X109347000Y-92659186D01*
X109347000Y-93853000D01*
X110540155Y-93853000D01*
X110661476Y-93623110D01*
X110616825Y-93475901D01*
X110491641Y-93213080D01*
X110317588Y-92979731D01*
X110101355Y-92784822D01*
X109851252Y-92635843D01*
X109576891Y-92538519D01*
X109347000Y-92659186D01*
X109093000Y-92659186D01*
X108863109Y-92538519D01*
X108588748Y-92635843D01*
X108338645Y-92784822D01*
X108122412Y-92979731D01*
X107948359Y-93213080D01*
X107823175Y-93475901D01*
X107778524Y-93623110D01*
X98450000Y-93623110D01*
X98450000Y-90195000D01*
X156185000Y-90195000D01*
X156185001Y-102845000D01*
%TD*%
M02*
