%TF.GenerationSoftware,KiCad,Pcbnew,(5.1.6)-1*%
%TF.CreationDate,2020-09-14T19:28:27+02:00*%
%TF.ProjectId,vacuumSensor,76616375-756d-4536-956e-736f722e6b69,rev?*%
%TF.SameCoordinates,Original*%
%TF.FileFunction,Copper,L1,Top*%
%TF.FilePolarity,Positive*%
%FSLAX46Y46*%
G04 Gerber Fmt 4.6, Leading zero omitted, Abs format (unit mm)*
G04 Created by KiCad (PCBNEW (5.1.6)-1) date 2020-09-14 19:28:27*
%MOMM*%
%LPD*%
G01*
G04 APERTURE LIST*
%TA.AperFunction,ComponentPad*%
%ADD10O,1.700000X1.700000*%
%TD*%
%TA.AperFunction,ComponentPad*%
%ADD11R,1.700000X1.700000*%
%TD*%
%TA.AperFunction,SMDPad,CuDef*%
%ADD12R,2.500000X1.500000*%
%TD*%
%TA.AperFunction,ViaPad*%
%ADD13C,0.800000*%
%TD*%
%TA.AperFunction,Conductor*%
%ADD14C,0.250000*%
%TD*%
%TA.AperFunction,Conductor*%
%ADD15C,0.254000*%
%TD*%
G04 APERTURE END LIST*
D10*
%TO.P,J1,3*%
%TO.N,GND*%
X109220000Y-93980000D03*
%TO.P,J1,2*%
%TO.N,/out*%
X109220000Y-96520000D03*
D11*
%TO.P,J1,1*%
%TO.N,VCC*%
X109220000Y-99060000D03*
%TD*%
%TO.P,U2,8*%
%TO.N,VCC*%
%TA.AperFunction,SMDPad,CuDef*%
G36*
G01*
X120420000Y-97640000D02*
X120420000Y-97940000D01*
G75*
G02*
X120270000Y-98090000I-150000J0D01*
G01*
X118620000Y-98090000D01*
G75*
G02*
X118470000Y-97940000I0J150000D01*
G01*
X118470000Y-97640000D01*
G75*
G02*
X118620000Y-97490000I150000J0D01*
G01*
X120270000Y-97490000D01*
G75*
G02*
X120420000Y-97640000I0J-150000D01*
G01*
G37*
%TD.AperFunction*%
%TO.P,U2,7*%
%TO.N,Net-(R5-Pad1)*%
%TA.AperFunction,SMDPad,CuDef*%
G36*
G01*
X120420000Y-96370000D02*
X120420000Y-96670000D01*
G75*
G02*
X120270000Y-96820000I-150000J0D01*
G01*
X118620000Y-96820000D01*
G75*
G02*
X118470000Y-96670000I0J150000D01*
G01*
X118470000Y-96370000D01*
G75*
G02*
X118620000Y-96220000I150000J0D01*
G01*
X120270000Y-96220000D01*
G75*
G02*
X120420000Y-96370000I0J-150000D01*
G01*
G37*
%TD.AperFunction*%
%TO.P,U2,6*%
%TO.N,Net-(R5-Pad2)*%
%TA.AperFunction,SMDPad,CuDef*%
G36*
G01*
X120420000Y-95100000D02*
X120420000Y-95400000D01*
G75*
G02*
X120270000Y-95550000I-150000J0D01*
G01*
X118620000Y-95550000D01*
G75*
G02*
X118470000Y-95400000I0J150000D01*
G01*
X118470000Y-95100000D01*
G75*
G02*
X118620000Y-94950000I150000J0D01*
G01*
X120270000Y-94950000D01*
G75*
G02*
X120420000Y-95100000I0J-150000D01*
G01*
G37*
%TD.AperFunction*%
%TO.P,U2,5*%
%TO.N,Net-(R3-Pad2)*%
%TA.AperFunction,SMDPad,CuDef*%
G36*
G01*
X120420000Y-93830000D02*
X120420000Y-94130000D01*
G75*
G02*
X120270000Y-94280000I-150000J0D01*
G01*
X118620000Y-94280000D01*
G75*
G02*
X118470000Y-94130000I0J150000D01*
G01*
X118470000Y-93830000D01*
G75*
G02*
X118620000Y-93680000I150000J0D01*
G01*
X120270000Y-93680000D01*
G75*
G02*
X120420000Y-93830000I0J-150000D01*
G01*
G37*
%TD.AperFunction*%
%TO.P,U2,4*%
%TO.N,GND*%
%TA.AperFunction,SMDPad,CuDef*%
G36*
G01*
X125370000Y-93830000D02*
X125370000Y-94130000D01*
G75*
G02*
X125220000Y-94280000I-150000J0D01*
G01*
X123570000Y-94280000D01*
G75*
G02*
X123420000Y-94130000I0J150000D01*
G01*
X123420000Y-93830000D01*
G75*
G02*
X123570000Y-93680000I150000J0D01*
G01*
X125220000Y-93680000D01*
G75*
G02*
X125370000Y-93830000I0J-150000D01*
G01*
G37*
%TD.AperFunction*%
%TO.P,U2,3*%
%TO.N,Net-(R1-Pad1)*%
%TA.AperFunction,SMDPad,CuDef*%
G36*
G01*
X125370000Y-95100000D02*
X125370000Y-95400000D01*
G75*
G02*
X125220000Y-95550000I-150000J0D01*
G01*
X123570000Y-95550000D01*
G75*
G02*
X123420000Y-95400000I0J150000D01*
G01*
X123420000Y-95100000D01*
G75*
G02*
X123570000Y-94950000I150000J0D01*
G01*
X125220000Y-94950000D01*
G75*
G02*
X125370000Y-95100000I0J-150000D01*
G01*
G37*
%TD.AperFunction*%
%TO.P,U2,2*%
%TO.N,Net-(R2-Pad2)*%
%TA.AperFunction,SMDPad,CuDef*%
G36*
G01*
X125370000Y-96370000D02*
X125370000Y-96670000D01*
G75*
G02*
X125220000Y-96820000I-150000J0D01*
G01*
X123570000Y-96820000D01*
G75*
G02*
X123420000Y-96670000I0J150000D01*
G01*
X123420000Y-96370000D01*
G75*
G02*
X123570000Y-96220000I150000J0D01*
G01*
X125220000Y-96220000D01*
G75*
G02*
X125370000Y-96370000I0J-150000D01*
G01*
G37*
%TD.AperFunction*%
%TO.P,U2,1*%
%TO.N,Net-(R2-Pad1)*%
%TA.AperFunction,SMDPad,CuDef*%
G36*
G01*
X125370000Y-97640000D02*
X125370000Y-97940000D01*
G75*
G02*
X125220000Y-98090000I-150000J0D01*
G01*
X123570000Y-98090000D01*
G75*
G02*
X123420000Y-97940000I0J150000D01*
G01*
X123420000Y-97640000D01*
G75*
G02*
X123570000Y-97490000I150000J0D01*
G01*
X125220000Y-97490000D01*
G75*
G02*
X125370000Y-97640000I0J-150000D01*
G01*
G37*
%TD.AperFunction*%
%TD*%
%TO.P,R6,2*%
%TO.N,/out*%
%TA.AperFunction,SMDPad,CuDef*%
G36*
G01*
X113315000Y-94358750D02*
X113315000Y-94871250D01*
G75*
G02*
X113096250Y-95090000I-218750J0D01*
G01*
X112658750Y-95090000D01*
G75*
G02*
X112440000Y-94871250I0J218750D01*
G01*
X112440000Y-94358750D01*
G75*
G02*
X112658750Y-94140000I218750J0D01*
G01*
X113096250Y-94140000D01*
G75*
G02*
X113315000Y-94358750I0J-218750D01*
G01*
G37*
%TD.AperFunction*%
%TO.P,R6,1*%
%TO.N,Net-(R5-Pad1)*%
%TA.AperFunction,SMDPad,CuDef*%
G36*
G01*
X114890000Y-94358750D02*
X114890000Y-94871250D01*
G75*
G02*
X114671250Y-95090000I-218750J0D01*
G01*
X114233750Y-95090000D01*
G75*
G02*
X114015000Y-94871250I0J218750D01*
G01*
X114015000Y-94358750D01*
G75*
G02*
X114233750Y-94140000I218750J0D01*
G01*
X114671250Y-94140000D01*
G75*
G02*
X114890000Y-94358750I0J-218750D01*
G01*
G37*
%TD.AperFunction*%
%TD*%
%TO.P,R5,2*%
%TO.N,Net-(R5-Pad2)*%
%TA.AperFunction,SMDPad,CuDef*%
G36*
G01*
X116461250Y-93630000D02*
X115948750Y-93630000D01*
G75*
G02*
X115730000Y-93411250I0J218750D01*
G01*
X115730000Y-92973750D01*
G75*
G02*
X115948750Y-92755000I218750J0D01*
G01*
X116461250Y-92755000D01*
G75*
G02*
X116680000Y-92973750I0J-218750D01*
G01*
X116680000Y-93411250D01*
G75*
G02*
X116461250Y-93630000I-218750J0D01*
G01*
G37*
%TD.AperFunction*%
%TO.P,R5,1*%
%TO.N,Net-(R5-Pad1)*%
%TA.AperFunction,SMDPad,CuDef*%
G36*
G01*
X116461250Y-95205000D02*
X115948750Y-95205000D01*
G75*
G02*
X115730000Y-94986250I0J218750D01*
G01*
X115730000Y-94548750D01*
G75*
G02*
X115948750Y-94330000I218750J0D01*
G01*
X116461250Y-94330000D01*
G75*
G02*
X116680000Y-94548750I0J-218750D01*
G01*
X116680000Y-94986250D01*
G75*
G02*
X116461250Y-95205000I-218750J0D01*
G01*
G37*
%TD.AperFunction*%
%TD*%
%TO.P,R4,2*%
%TO.N,GND*%
%TA.AperFunction,SMDPad,CuDef*%
G36*
G01*
X120365000Y-91696250D02*
X120365000Y-91183750D01*
G75*
G02*
X120583750Y-90965000I218750J0D01*
G01*
X121021250Y-90965000D01*
G75*
G02*
X121240000Y-91183750I0J-218750D01*
G01*
X121240000Y-91696250D01*
G75*
G02*
X121021250Y-91915000I-218750J0D01*
G01*
X120583750Y-91915000D01*
G75*
G02*
X120365000Y-91696250I0J218750D01*
G01*
G37*
%TD.AperFunction*%
%TO.P,R4,1*%
%TO.N,Net-(R3-Pad2)*%
%TA.AperFunction,SMDPad,CuDef*%
G36*
G01*
X118790000Y-91696250D02*
X118790000Y-91183750D01*
G75*
G02*
X119008750Y-90965000I218750J0D01*
G01*
X119446250Y-90965000D01*
G75*
G02*
X119665000Y-91183750I0J-218750D01*
G01*
X119665000Y-91696250D01*
G75*
G02*
X119446250Y-91915000I-218750J0D01*
G01*
X119008750Y-91915000D01*
G75*
G02*
X118790000Y-91696250I0J218750D01*
G01*
G37*
%TD.AperFunction*%
%TD*%
%TO.P,R3,2*%
%TO.N,Net-(R3-Pad2)*%
%TA.AperFunction,SMDPad,CuDef*%
G36*
G01*
X123475000Y-99438750D02*
X123475000Y-99951250D01*
G75*
G02*
X123256250Y-100170000I-218750J0D01*
G01*
X122818750Y-100170000D01*
G75*
G02*
X122600000Y-99951250I0J218750D01*
G01*
X122600000Y-99438750D01*
G75*
G02*
X122818750Y-99220000I218750J0D01*
G01*
X123256250Y-99220000D01*
G75*
G02*
X123475000Y-99438750I0J-218750D01*
G01*
G37*
%TD.AperFunction*%
%TO.P,R3,1*%
%TO.N,Net-(R2-Pad1)*%
%TA.AperFunction,SMDPad,CuDef*%
G36*
G01*
X125050000Y-99438750D02*
X125050000Y-99951250D01*
G75*
G02*
X124831250Y-100170000I-218750J0D01*
G01*
X124393750Y-100170000D01*
G75*
G02*
X124175000Y-99951250I0J218750D01*
G01*
X124175000Y-99438750D01*
G75*
G02*
X124393750Y-99220000I218750J0D01*
G01*
X124831250Y-99220000D01*
G75*
G02*
X125050000Y-99438750I0J-218750D01*
G01*
G37*
%TD.AperFunction*%
%TD*%
%TO.P,R2,2*%
%TO.N,Net-(R2-Pad2)*%
%TA.AperFunction,SMDPad,CuDef*%
G36*
G01*
X127256250Y-96805000D02*
X126743750Y-96805000D01*
G75*
G02*
X126525000Y-96586250I0J218750D01*
G01*
X126525000Y-96148750D01*
G75*
G02*
X126743750Y-95930000I218750J0D01*
G01*
X127256250Y-95930000D01*
G75*
G02*
X127475000Y-96148750I0J-218750D01*
G01*
X127475000Y-96586250D01*
G75*
G02*
X127256250Y-96805000I-218750J0D01*
G01*
G37*
%TD.AperFunction*%
%TO.P,R2,1*%
%TO.N,Net-(R2-Pad1)*%
%TA.AperFunction,SMDPad,CuDef*%
G36*
G01*
X127256250Y-98380000D02*
X126743750Y-98380000D01*
G75*
G02*
X126525000Y-98161250I0J218750D01*
G01*
X126525000Y-97723750D01*
G75*
G02*
X126743750Y-97505000I218750J0D01*
G01*
X127256250Y-97505000D01*
G75*
G02*
X127475000Y-97723750I0J-218750D01*
G01*
X127475000Y-98161250D01*
G75*
G02*
X127256250Y-98380000I-218750J0D01*
G01*
G37*
%TD.AperFunction*%
%TD*%
%TO.P,R1,2*%
%TO.N,Net-(R1-Pad2)*%
%TA.AperFunction,SMDPad,CuDef*%
G36*
G01*
X127256250Y-93630000D02*
X126743750Y-93630000D01*
G75*
G02*
X126525000Y-93411250I0J218750D01*
G01*
X126525000Y-92973750D01*
G75*
G02*
X126743750Y-92755000I218750J0D01*
G01*
X127256250Y-92755000D01*
G75*
G02*
X127475000Y-92973750I0J-218750D01*
G01*
X127475000Y-93411250D01*
G75*
G02*
X127256250Y-93630000I-218750J0D01*
G01*
G37*
%TD.AperFunction*%
%TO.P,R1,1*%
%TO.N,Net-(R1-Pad1)*%
%TA.AperFunction,SMDPad,CuDef*%
G36*
G01*
X127256250Y-95205000D02*
X126743750Y-95205000D01*
G75*
G02*
X126525000Y-94986250I0J218750D01*
G01*
X126525000Y-94548750D01*
G75*
G02*
X126743750Y-94330000I218750J0D01*
G01*
X127256250Y-94330000D01*
G75*
G02*
X127475000Y-94548750I0J-218750D01*
G01*
X127475000Y-94986250D01*
G75*
G02*
X127256250Y-95205000I-218750J0D01*
G01*
G37*
%TD.AperFunction*%
%TD*%
%TO.P,C1,2*%
%TO.N,GND*%
%TA.AperFunction,SMDPad,CuDef*%
G36*
G01*
X116461250Y-96805000D02*
X115948750Y-96805000D01*
G75*
G02*
X115730000Y-96586250I0J218750D01*
G01*
X115730000Y-96148750D01*
G75*
G02*
X115948750Y-95930000I218750J0D01*
G01*
X116461250Y-95930000D01*
G75*
G02*
X116680000Y-96148750I0J-218750D01*
G01*
X116680000Y-96586250D01*
G75*
G02*
X116461250Y-96805000I-218750J0D01*
G01*
G37*
%TD.AperFunction*%
%TO.P,C1,1*%
%TO.N,VCC*%
%TA.AperFunction,SMDPad,CuDef*%
G36*
G01*
X116461250Y-98380000D02*
X115948750Y-98380000D01*
G75*
G02*
X115730000Y-98161250I0J218750D01*
G01*
X115730000Y-97723750D01*
G75*
G02*
X115948750Y-97505000I218750J0D01*
G01*
X116461250Y-97505000D01*
G75*
G02*
X116680000Y-97723750I0J-218750D01*
G01*
X116680000Y-98161250D01*
G75*
G02*
X116461250Y-98380000I-218750J0D01*
G01*
G37*
%TD.AperFunction*%
%TD*%
D12*
%TO.P,U1,8*%
%TO.N,N/C*%
X146685000Y-92710000D03*
%TO.P,U1,7*%
X146685000Y-95250000D03*
%TO.P,U1,6*%
X146685000Y-97790000D03*
%TO.P,U1,5*%
X146685000Y-100330000D03*
%TO.P,U1,4*%
%TO.N,Net-(R1-Pad2)*%
X131445000Y-100330000D03*
%TO.P,U1,3*%
%TO.N,GND*%
X131445000Y-97790000D03*
%TO.P,U1,2*%
%TO.N,VCC*%
X131445000Y-95250000D03*
%TO.P,U1,1*%
%TO.N,N/C*%
X131445000Y-92735400D03*
%TD*%
D13*
%TO.N,GND*%
X99695000Y-90805000D03*
X99695000Y-102235000D03*
X155575000Y-90805000D03*
X155575000Y-102235000D03*
X113030000Y-102235000D03*
X113030000Y-90805000D03*
X139065000Y-90805000D03*
X139700000Y-102235000D03*
X125095000Y-102235000D03*
X125095000Y-90805000D03*
X114300000Y-96520000D03*
X128270000Y-96520000D03*
X126365000Y-99695000D03*
X121285000Y-98425000D03*
X121920000Y-93980000D03*
X133985000Y-97790000D03*
X122555000Y-91440000D03*
%TO.N,VCC*%
X128905000Y-99695000D03*
X134620000Y-96520000D03*
%TD*%
D14*
%TO.N,VCC*%
X116357500Y-97790000D02*
X116205000Y-97942500D01*
X119445000Y-97790000D02*
X116357500Y-97790000D01*
X119445000Y-97790000D02*
X119445000Y-99125000D01*
X119445000Y-99125000D02*
X121920000Y-101600000D01*
X121920000Y-101600000D02*
X127000000Y-101600000D01*
X127000000Y-101600000D02*
X128905000Y-99695000D01*
X132715000Y-96520000D02*
X131445000Y-95250000D01*
X134620000Y-96520000D02*
X132715000Y-96520000D01*
X110337500Y-97942500D02*
X109220000Y-99060000D01*
X116205000Y-97942500D02*
X110337500Y-97942500D01*
%TO.N,Net-(R1-Pad2)*%
X129540000Y-95732500D02*
X127000000Y-93192500D01*
X131445000Y-100330000D02*
X129540000Y-98425000D01*
X129540000Y-98425000D02*
X129540000Y-95732500D01*
%TO.N,Net-(R1-Pad1)*%
X124877500Y-94767500D02*
X124395000Y-95250000D01*
X127000000Y-94767500D02*
X124877500Y-94767500D01*
%TO.N,Net-(R2-Pad2)*%
X126847500Y-96520000D02*
X127000000Y-96367500D01*
X124395000Y-96520000D02*
X126847500Y-96520000D01*
%TO.N,Net-(R2-Pad1)*%
X124547500Y-97942500D02*
X124395000Y-97790000D01*
X127000000Y-97942500D02*
X124547500Y-97942500D01*
X124612500Y-98007500D02*
X124395000Y-97790000D01*
X124612500Y-99695000D02*
X124612500Y-98007500D01*
%TO.N,Net-(R3-Pad2)*%
X119821768Y-93980000D02*
X119445000Y-93980000D01*
X123037500Y-97195732D02*
X119821768Y-93980000D01*
X123037500Y-99695000D02*
X123037500Y-97195732D01*
X119445000Y-91657500D02*
X119227500Y-91440000D01*
X119445000Y-93980000D02*
X119445000Y-91657500D01*
%TO.N,Net-(R5-Pad2)*%
X118262500Y-95250000D02*
X116205000Y-93192500D01*
X119445000Y-95250000D02*
X118262500Y-95250000D01*
%TO.N,Net-(R5-Pad1)*%
X116052500Y-94615000D02*
X116205000Y-94767500D01*
X114452500Y-94615000D02*
X116052500Y-94615000D01*
X117957500Y-96520000D02*
X119445000Y-96520000D01*
X116205000Y-94767500D02*
X117957500Y-96520000D01*
%TO.N,/out*%
X111607500Y-95885000D02*
X112877500Y-94615000D01*
X110972500Y-96520000D02*
X112877500Y-94615000D01*
X109220000Y-96520000D02*
X110972500Y-96520000D01*
%TD*%
D15*
%TO.N,GND*%
G36*
X156185001Y-102845000D02*
G01*
X98450000Y-102845000D01*
X98450000Y-96299872D01*
X100000000Y-96299872D01*
X100000000Y-96740128D01*
X100085890Y-97171925D01*
X100254369Y-97578669D01*
X100498962Y-97944729D01*
X100810271Y-98256038D01*
X101176331Y-98500631D01*
X101583075Y-98669110D01*
X102014872Y-98755000D01*
X102455128Y-98755000D01*
X102886925Y-98669110D01*
X103293669Y-98500631D01*
X103659729Y-98256038D01*
X103705767Y-98210000D01*
X107731928Y-98210000D01*
X107731928Y-99910000D01*
X107744188Y-100034482D01*
X107780498Y-100154180D01*
X107839463Y-100264494D01*
X107918815Y-100361185D01*
X108015506Y-100440537D01*
X108125820Y-100499502D01*
X108245518Y-100535812D01*
X108370000Y-100548072D01*
X110070000Y-100548072D01*
X110194482Y-100535812D01*
X110314180Y-100499502D01*
X110424494Y-100440537D01*
X110521185Y-100361185D01*
X110600537Y-100264494D01*
X110659502Y-100154180D01*
X110695812Y-100034482D01*
X110708072Y-99910000D01*
X110708072Y-98702500D01*
X115289857Y-98702500D01*
X115342885Y-98767115D01*
X115472725Y-98873671D01*
X115620858Y-98952850D01*
X115781592Y-99001608D01*
X115948750Y-99018072D01*
X116461250Y-99018072D01*
X116628408Y-99001608D01*
X116789142Y-98952850D01*
X116937275Y-98873671D01*
X117067115Y-98767115D01*
X117173671Y-98637275D01*
X117220321Y-98550000D01*
X118127024Y-98550000D01*
X118182171Y-98595258D01*
X118318418Y-98668084D01*
X118466255Y-98712929D01*
X118620000Y-98728072D01*
X118685001Y-98728072D01*
X118685001Y-99087668D01*
X118681324Y-99125000D01*
X118695998Y-99273985D01*
X118739454Y-99417246D01*
X118810026Y-99549276D01*
X118871186Y-99623799D01*
X118905000Y-99665001D01*
X118933998Y-99688799D01*
X121356201Y-102111003D01*
X121379999Y-102140001D01*
X121408997Y-102163799D01*
X121495724Y-102234974D01*
X121627753Y-102305546D01*
X121771014Y-102349003D01*
X121920000Y-102363677D01*
X121957333Y-102360000D01*
X126962678Y-102360000D01*
X127000000Y-102363676D01*
X127037322Y-102360000D01*
X127037333Y-102360000D01*
X127148986Y-102349003D01*
X127292247Y-102305546D01*
X127424276Y-102234974D01*
X127540001Y-102140001D01*
X127563804Y-102110997D01*
X128944802Y-100730000D01*
X129006939Y-100730000D01*
X129206898Y-100690226D01*
X129395256Y-100612205D01*
X129556928Y-100504180D01*
X129556928Y-101080000D01*
X129569188Y-101204482D01*
X129605498Y-101324180D01*
X129664463Y-101434494D01*
X129743815Y-101531185D01*
X129840506Y-101610537D01*
X129950820Y-101669502D01*
X130070518Y-101705812D01*
X130195000Y-101718072D01*
X132695000Y-101718072D01*
X132819482Y-101705812D01*
X132939180Y-101669502D01*
X133049494Y-101610537D01*
X133146185Y-101531185D01*
X133225537Y-101434494D01*
X133284502Y-101324180D01*
X133320812Y-101204482D01*
X133333072Y-101080000D01*
X133333072Y-99580000D01*
X133320812Y-99455518D01*
X133284502Y-99335820D01*
X133225537Y-99225506D01*
X133146185Y-99128815D01*
X133062333Y-99060000D01*
X133146185Y-98991185D01*
X133225537Y-98894494D01*
X133284502Y-98784180D01*
X133320812Y-98664482D01*
X133333072Y-98540000D01*
X133330000Y-98075750D01*
X133171250Y-97917000D01*
X131572000Y-97917000D01*
X131572000Y-97937000D01*
X131318000Y-97937000D01*
X131318000Y-97917000D01*
X131298000Y-97917000D01*
X131298000Y-97663000D01*
X131318000Y-97663000D01*
X131318000Y-97643000D01*
X131572000Y-97643000D01*
X131572000Y-97663000D01*
X133171250Y-97663000D01*
X133330000Y-97504250D01*
X133331484Y-97280000D01*
X133916289Y-97280000D01*
X133960226Y-97323937D01*
X134129744Y-97437205D01*
X134318102Y-97515226D01*
X134518061Y-97555000D01*
X134721939Y-97555000D01*
X134921898Y-97515226D01*
X135110256Y-97437205D01*
X135279774Y-97323937D01*
X135423937Y-97179774D01*
X135537205Y-97010256D01*
X135615226Y-96821898D01*
X135655000Y-96621939D01*
X135655000Y-96418061D01*
X135615226Y-96218102D01*
X135537205Y-96029744D01*
X135423937Y-95860226D01*
X135279774Y-95716063D01*
X135110256Y-95602795D01*
X134921898Y-95524774D01*
X134721939Y-95485000D01*
X134518061Y-95485000D01*
X134318102Y-95524774D01*
X134129744Y-95602795D01*
X133960226Y-95716063D01*
X133916289Y-95760000D01*
X133333072Y-95760000D01*
X133333072Y-94500000D01*
X133320812Y-94375518D01*
X133284502Y-94255820D01*
X133225537Y-94145506D01*
X133146185Y-94048815D01*
X133077808Y-93992700D01*
X133146185Y-93936585D01*
X133225537Y-93839894D01*
X133284502Y-93729580D01*
X133320812Y-93609882D01*
X133333072Y-93485400D01*
X133333072Y-91985400D01*
X133330571Y-91960000D01*
X144796928Y-91960000D01*
X144796928Y-93460000D01*
X144809188Y-93584482D01*
X144845498Y-93704180D01*
X144904463Y-93814494D01*
X144983815Y-93911185D01*
X145067667Y-93980000D01*
X144983815Y-94048815D01*
X144904463Y-94145506D01*
X144845498Y-94255820D01*
X144809188Y-94375518D01*
X144796928Y-94500000D01*
X144796928Y-96000000D01*
X144809188Y-96124482D01*
X144845498Y-96244180D01*
X144904463Y-96354494D01*
X144983815Y-96451185D01*
X145067667Y-96520000D01*
X144983815Y-96588815D01*
X144904463Y-96685506D01*
X144845498Y-96795820D01*
X144809188Y-96915518D01*
X144796928Y-97040000D01*
X144796928Y-98540000D01*
X144809188Y-98664482D01*
X144845498Y-98784180D01*
X144904463Y-98894494D01*
X144983815Y-98991185D01*
X145067667Y-99060000D01*
X144983815Y-99128815D01*
X144904463Y-99225506D01*
X144845498Y-99335820D01*
X144809188Y-99455518D01*
X144796928Y-99580000D01*
X144796928Y-101080000D01*
X144809188Y-101204482D01*
X144845498Y-101324180D01*
X144904463Y-101434494D01*
X144983815Y-101531185D01*
X145080506Y-101610537D01*
X145190820Y-101669502D01*
X145310518Y-101705812D01*
X145435000Y-101718072D01*
X147935000Y-101718072D01*
X148059482Y-101705812D01*
X148179180Y-101669502D01*
X148289494Y-101610537D01*
X148386185Y-101531185D01*
X148465537Y-101434494D01*
X148524502Y-101324180D01*
X148560812Y-101204482D01*
X148573072Y-101080000D01*
X148573072Y-99580000D01*
X148560812Y-99455518D01*
X148524502Y-99335820D01*
X148465537Y-99225506D01*
X148386185Y-99128815D01*
X148302333Y-99060000D01*
X148386185Y-98991185D01*
X148465537Y-98894494D01*
X148524502Y-98784180D01*
X148560812Y-98664482D01*
X148573072Y-98540000D01*
X148573072Y-97040000D01*
X148560812Y-96915518D01*
X148524502Y-96795820D01*
X148465537Y-96685506D01*
X148386185Y-96588815D01*
X148302333Y-96520000D01*
X148386185Y-96451185D01*
X148465537Y-96354494D01*
X148494733Y-96299872D01*
X150165000Y-96299872D01*
X150165000Y-96740128D01*
X150250890Y-97171925D01*
X150419369Y-97578669D01*
X150663962Y-97944729D01*
X150975271Y-98256038D01*
X151341331Y-98500631D01*
X151748075Y-98669110D01*
X152179872Y-98755000D01*
X152620128Y-98755000D01*
X153051925Y-98669110D01*
X153458669Y-98500631D01*
X153824729Y-98256038D01*
X154136038Y-97944729D01*
X154380631Y-97578669D01*
X154549110Y-97171925D01*
X154635000Y-96740128D01*
X154635000Y-96299872D01*
X154549110Y-95868075D01*
X154380631Y-95461331D01*
X154136038Y-95095271D01*
X153824729Y-94783962D01*
X153458669Y-94539369D01*
X153051925Y-94370890D01*
X152620128Y-94285000D01*
X152179872Y-94285000D01*
X151748075Y-94370890D01*
X151341331Y-94539369D01*
X150975271Y-94783962D01*
X150663962Y-95095271D01*
X150419369Y-95461331D01*
X150250890Y-95868075D01*
X150165000Y-96299872D01*
X148494733Y-96299872D01*
X148524502Y-96244180D01*
X148560812Y-96124482D01*
X148573072Y-96000000D01*
X148573072Y-94500000D01*
X148560812Y-94375518D01*
X148524502Y-94255820D01*
X148465537Y-94145506D01*
X148386185Y-94048815D01*
X148302333Y-93980000D01*
X148386185Y-93911185D01*
X148465537Y-93814494D01*
X148524502Y-93704180D01*
X148560812Y-93584482D01*
X148573072Y-93460000D01*
X148573072Y-91960000D01*
X148560812Y-91835518D01*
X148524502Y-91715820D01*
X148465537Y-91605506D01*
X148386185Y-91508815D01*
X148289494Y-91429463D01*
X148179180Y-91370498D01*
X148059482Y-91334188D01*
X147935000Y-91321928D01*
X145435000Y-91321928D01*
X145310518Y-91334188D01*
X145190820Y-91370498D01*
X145080506Y-91429463D01*
X144983815Y-91508815D01*
X144904463Y-91605506D01*
X144845498Y-91715820D01*
X144809188Y-91835518D01*
X144796928Y-91960000D01*
X133330571Y-91960000D01*
X133320812Y-91860918D01*
X133284502Y-91741220D01*
X133225537Y-91630906D01*
X133146185Y-91534215D01*
X133049494Y-91454863D01*
X132939180Y-91395898D01*
X132819482Y-91359588D01*
X132695000Y-91347328D01*
X130195000Y-91347328D01*
X130070518Y-91359588D01*
X129950820Y-91395898D01*
X129840506Y-91454863D01*
X129743815Y-91534215D01*
X129664463Y-91630906D01*
X129605498Y-91741220D01*
X129569188Y-91860918D01*
X129556928Y-91985400D01*
X129556928Y-93485400D01*
X129569188Y-93609882D01*
X129605498Y-93729580D01*
X129664463Y-93839894D01*
X129743815Y-93936585D01*
X129812192Y-93992700D01*
X129743815Y-94048815D01*
X129664463Y-94145506D01*
X129605498Y-94255820D01*
X129569188Y-94375518D01*
X129556928Y-94500000D01*
X129556928Y-94674625D01*
X128113072Y-93230771D01*
X128113072Y-92973750D01*
X128096608Y-92806592D01*
X128047850Y-92645858D01*
X127968671Y-92497725D01*
X127862115Y-92367885D01*
X127732275Y-92261329D01*
X127584142Y-92182150D01*
X127423408Y-92133392D01*
X127256250Y-92116928D01*
X126743750Y-92116928D01*
X126576592Y-92133392D01*
X126415858Y-92182150D01*
X126267725Y-92261329D01*
X126137885Y-92367885D01*
X126031329Y-92497725D01*
X125952150Y-92645858D01*
X125903392Y-92806592D01*
X125886928Y-92973750D01*
X125886928Y-93308923D01*
X125821185Y-93228815D01*
X125724494Y-93149463D01*
X125614180Y-93090498D01*
X125494482Y-93054188D01*
X125370000Y-93041928D01*
X124680750Y-93045000D01*
X124522000Y-93203750D01*
X124522000Y-93853000D01*
X125846250Y-93853000D01*
X125954922Y-93744328D01*
X126031329Y-93887275D01*
X126107426Y-93980000D01*
X126084857Y-94007500D01*
X124914822Y-94007500D01*
X124877499Y-94003824D01*
X124840176Y-94007500D01*
X124840167Y-94007500D01*
X124728514Y-94018497D01*
X124620702Y-94051201D01*
X124585253Y-94061954D01*
X124463561Y-94127000D01*
X124268000Y-94127000D01*
X124268000Y-94107000D01*
X122943750Y-94107000D01*
X122785000Y-94265750D01*
X122781928Y-94280000D01*
X122794188Y-94404482D01*
X122830498Y-94524180D01*
X122889463Y-94634494D01*
X122913730Y-94664064D01*
X122841916Y-94798418D01*
X122797071Y-94946255D01*
X122781928Y-95100000D01*
X122781928Y-95400000D01*
X122797071Y-95553745D01*
X122841916Y-95701582D01*
X122914742Y-95837829D01*
X122953454Y-95885000D01*
X122914742Y-95932171D01*
X122891752Y-95975182D01*
X121057041Y-94140471D01*
X121058072Y-94130000D01*
X121058072Y-93830000D01*
X121043298Y-93680000D01*
X122781928Y-93680000D01*
X122785000Y-93694250D01*
X122943750Y-93853000D01*
X124268000Y-93853000D01*
X124268000Y-93203750D01*
X124109250Y-93045000D01*
X123420000Y-93041928D01*
X123295518Y-93054188D01*
X123175820Y-93090498D01*
X123065506Y-93149463D01*
X122968815Y-93228815D01*
X122889463Y-93325506D01*
X122830498Y-93435820D01*
X122794188Y-93555518D01*
X122781928Y-93680000D01*
X121043298Y-93680000D01*
X121042929Y-93676255D01*
X120998084Y-93528418D01*
X120925258Y-93392171D01*
X120827251Y-93272749D01*
X120707829Y-93174742D01*
X120571582Y-93101916D01*
X120423745Y-93057071D01*
X120270000Y-93041928D01*
X120205000Y-93041928D01*
X120205000Y-92530038D01*
X120240518Y-92540812D01*
X120365000Y-92553072D01*
X120516750Y-92550000D01*
X120675500Y-92391250D01*
X120675500Y-91567000D01*
X120929500Y-91567000D01*
X120929500Y-92391250D01*
X121088250Y-92550000D01*
X121240000Y-92553072D01*
X121364482Y-92540812D01*
X121484180Y-92504502D01*
X121594494Y-92445537D01*
X121691185Y-92366185D01*
X121770537Y-92269494D01*
X121829502Y-92159180D01*
X121865812Y-92039482D01*
X121878072Y-91915000D01*
X121875000Y-91725750D01*
X121716250Y-91567000D01*
X120929500Y-91567000D01*
X120675500Y-91567000D01*
X120655500Y-91567000D01*
X120655500Y-91313000D01*
X120675500Y-91313000D01*
X120675500Y-90488750D01*
X120929500Y-90488750D01*
X120929500Y-91313000D01*
X121716250Y-91313000D01*
X121875000Y-91154250D01*
X121878072Y-90965000D01*
X121865812Y-90840518D01*
X121829502Y-90720820D01*
X121770537Y-90610506D01*
X121691185Y-90513815D01*
X121594494Y-90434463D01*
X121484180Y-90375498D01*
X121364482Y-90339188D01*
X121240000Y-90326928D01*
X121088250Y-90330000D01*
X120929500Y-90488750D01*
X120675500Y-90488750D01*
X120516750Y-90330000D01*
X120365000Y-90326928D01*
X120240518Y-90339188D01*
X120120820Y-90375498D01*
X120010506Y-90434463D01*
X119943930Y-90489100D01*
X119922275Y-90471329D01*
X119774142Y-90392150D01*
X119613408Y-90343392D01*
X119446250Y-90326928D01*
X119008750Y-90326928D01*
X118841592Y-90343392D01*
X118680858Y-90392150D01*
X118532725Y-90471329D01*
X118402885Y-90577885D01*
X118296329Y-90707725D01*
X118217150Y-90855858D01*
X118168392Y-91016592D01*
X118151928Y-91183750D01*
X118151928Y-91696250D01*
X118168392Y-91863408D01*
X118217150Y-92024142D01*
X118296329Y-92172275D01*
X118402885Y-92302115D01*
X118532725Y-92408671D01*
X118680858Y-92487850D01*
X118685001Y-92489107D01*
X118685000Y-93041928D01*
X118620000Y-93041928D01*
X118466255Y-93057071D01*
X118318418Y-93101916D01*
X118182171Y-93174742D01*
X118062749Y-93272749D01*
X117964742Y-93392171D01*
X117891916Y-93528418D01*
X117847071Y-93676255D01*
X117839583Y-93752281D01*
X117318072Y-93230770D01*
X117318072Y-92973750D01*
X117301608Y-92806592D01*
X117252850Y-92645858D01*
X117173671Y-92497725D01*
X117067115Y-92367885D01*
X116937275Y-92261329D01*
X116789142Y-92182150D01*
X116628408Y-92133392D01*
X116461250Y-92116928D01*
X115948750Y-92116928D01*
X115781592Y-92133392D01*
X115620858Y-92182150D01*
X115472725Y-92261329D01*
X115342885Y-92367885D01*
X115236329Y-92497725D01*
X115157150Y-92645858D01*
X115108392Y-92806592D01*
X115091928Y-92973750D01*
X115091928Y-93411250D01*
X115108392Y-93578408D01*
X115125458Y-93634668D01*
X114999142Y-93567150D01*
X114838408Y-93518392D01*
X114671250Y-93501928D01*
X114233750Y-93501928D01*
X114066592Y-93518392D01*
X113905858Y-93567150D01*
X113757725Y-93646329D01*
X113665000Y-93722426D01*
X113572275Y-93646329D01*
X113424142Y-93567150D01*
X113263408Y-93518392D01*
X113096250Y-93501928D01*
X112658750Y-93501928D01*
X112491592Y-93518392D01*
X112330858Y-93567150D01*
X112182725Y-93646329D01*
X112052885Y-93752885D01*
X111946329Y-93882725D01*
X111867150Y-94030858D01*
X111818392Y-94191592D01*
X111801928Y-94358750D01*
X111801928Y-94615770D01*
X110657699Y-95760000D01*
X110498178Y-95760000D01*
X110373475Y-95573368D01*
X110166632Y-95366525D01*
X109984466Y-95244805D01*
X110101355Y-95175178D01*
X110317588Y-94980269D01*
X110491641Y-94746920D01*
X110616825Y-94484099D01*
X110661476Y-94336890D01*
X110540155Y-94107000D01*
X109347000Y-94107000D01*
X109347000Y-94127000D01*
X109093000Y-94127000D01*
X109093000Y-94107000D01*
X107899845Y-94107000D01*
X107778524Y-94336890D01*
X107823175Y-94484099D01*
X107948359Y-94746920D01*
X108122412Y-94980269D01*
X108338645Y-95175178D01*
X108455534Y-95244805D01*
X108273368Y-95366525D01*
X108066525Y-95573368D01*
X107904010Y-95816589D01*
X107792068Y-96086842D01*
X107735000Y-96373740D01*
X107735000Y-96666260D01*
X107792068Y-96953158D01*
X107904010Y-97223411D01*
X108066525Y-97466632D01*
X108198380Y-97598487D01*
X108125820Y-97620498D01*
X108015506Y-97679463D01*
X107918815Y-97758815D01*
X107839463Y-97855506D01*
X107780498Y-97965820D01*
X107744188Y-98085518D01*
X107731928Y-98210000D01*
X103705767Y-98210000D01*
X103971038Y-97944729D01*
X104215631Y-97578669D01*
X104384110Y-97171925D01*
X104470000Y-96740128D01*
X104470000Y-96299872D01*
X104384110Y-95868075D01*
X104215631Y-95461331D01*
X103971038Y-95095271D01*
X103659729Y-94783962D01*
X103293669Y-94539369D01*
X102886925Y-94370890D01*
X102455128Y-94285000D01*
X102014872Y-94285000D01*
X101583075Y-94370890D01*
X101176331Y-94539369D01*
X100810271Y-94783962D01*
X100498962Y-95095271D01*
X100254369Y-95461331D01*
X100085890Y-95868075D01*
X100000000Y-96299872D01*
X98450000Y-96299872D01*
X98450000Y-93623110D01*
X107778524Y-93623110D01*
X107899845Y-93853000D01*
X109093000Y-93853000D01*
X109093000Y-92659186D01*
X109347000Y-92659186D01*
X109347000Y-93853000D01*
X110540155Y-93853000D01*
X110661476Y-93623110D01*
X110616825Y-93475901D01*
X110491641Y-93213080D01*
X110317588Y-92979731D01*
X110101355Y-92784822D01*
X109851252Y-92635843D01*
X109576891Y-92538519D01*
X109347000Y-92659186D01*
X109093000Y-92659186D01*
X108863109Y-92538519D01*
X108588748Y-92635843D01*
X108338645Y-92784822D01*
X108122412Y-92979731D01*
X107948359Y-93213080D01*
X107823175Y-93475901D01*
X107778524Y-93623110D01*
X98450000Y-93623110D01*
X98450000Y-90195000D01*
X156185000Y-90195000D01*
X156185001Y-102845000D01*
G37*
X156185001Y-102845000D02*
X98450000Y-102845000D01*
X98450000Y-96299872D01*
X100000000Y-96299872D01*
X100000000Y-96740128D01*
X100085890Y-97171925D01*
X100254369Y-97578669D01*
X100498962Y-97944729D01*
X100810271Y-98256038D01*
X101176331Y-98500631D01*
X101583075Y-98669110D01*
X102014872Y-98755000D01*
X102455128Y-98755000D01*
X102886925Y-98669110D01*
X103293669Y-98500631D01*
X103659729Y-98256038D01*
X103705767Y-98210000D01*
X107731928Y-98210000D01*
X107731928Y-99910000D01*
X107744188Y-100034482D01*
X107780498Y-100154180D01*
X107839463Y-100264494D01*
X107918815Y-100361185D01*
X108015506Y-100440537D01*
X108125820Y-100499502D01*
X108245518Y-100535812D01*
X108370000Y-100548072D01*
X110070000Y-100548072D01*
X110194482Y-100535812D01*
X110314180Y-100499502D01*
X110424494Y-100440537D01*
X110521185Y-100361185D01*
X110600537Y-100264494D01*
X110659502Y-100154180D01*
X110695812Y-100034482D01*
X110708072Y-99910000D01*
X110708072Y-98702500D01*
X115289857Y-98702500D01*
X115342885Y-98767115D01*
X115472725Y-98873671D01*
X115620858Y-98952850D01*
X115781592Y-99001608D01*
X115948750Y-99018072D01*
X116461250Y-99018072D01*
X116628408Y-99001608D01*
X116789142Y-98952850D01*
X116937275Y-98873671D01*
X117067115Y-98767115D01*
X117173671Y-98637275D01*
X117220321Y-98550000D01*
X118127024Y-98550000D01*
X118182171Y-98595258D01*
X118318418Y-98668084D01*
X118466255Y-98712929D01*
X118620000Y-98728072D01*
X118685001Y-98728072D01*
X118685001Y-99087668D01*
X118681324Y-99125000D01*
X118695998Y-99273985D01*
X118739454Y-99417246D01*
X118810026Y-99549276D01*
X118871186Y-99623799D01*
X118905000Y-99665001D01*
X118933998Y-99688799D01*
X121356201Y-102111003D01*
X121379999Y-102140001D01*
X121408997Y-102163799D01*
X121495724Y-102234974D01*
X121627753Y-102305546D01*
X121771014Y-102349003D01*
X121920000Y-102363677D01*
X121957333Y-102360000D01*
X126962678Y-102360000D01*
X127000000Y-102363676D01*
X127037322Y-102360000D01*
X127037333Y-102360000D01*
X127148986Y-102349003D01*
X127292247Y-102305546D01*
X127424276Y-102234974D01*
X127540001Y-102140001D01*
X127563804Y-102110997D01*
X128944802Y-100730000D01*
X129006939Y-100730000D01*
X129206898Y-100690226D01*
X129395256Y-100612205D01*
X129556928Y-100504180D01*
X129556928Y-101080000D01*
X129569188Y-101204482D01*
X129605498Y-101324180D01*
X129664463Y-101434494D01*
X129743815Y-101531185D01*
X129840506Y-101610537D01*
X129950820Y-101669502D01*
X130070518Y-101705812D01*
X130195000Y-101718072D01*
X132695000Y-101718072D01*
X132819482Y-101705812D01*
X132939180Y-101669502D01*
X133049494Y-101610537D01*
X133146185Y-101531185D01*
X133225537Y-101434494D01*
X133284502Y-101324180D01*
X133320812Y-101204482D01*
X133333072Y-101080000D01*
X133333072Y-99580000D01*
X133320812Y-99455518D01*
X133284502Y-99335820D01*
X133225537Y-99225506D01*
X133146185Y-99128815D01*
X133062333Y-99060000D01*
X133146185Y-98991185D01*
X133225537Y-98894494D01*
X133284502Y-98784180D01*
X133320812Y-98664482D01*
X133333072Y-98540000D01*
X133330000Y-98075750D01*
X133171250Y-97917000D01*
X131572000Y-97917000D01*
X131572000Y-97937000D01*
X131318000Y-97937000D01*
X131318000Y-97917000D01*
X131298000Y-97917000D01*
X131298000Y-97663000D01*
X131318000Y-97663000D01*
X131318000Y-97643000D01*
X131572000Y-97643000D01*
X131572000Y-97663000D01*
X133171250Y-97663000D01*
X133330000Y-97504250D01*
X133331484Y-97280000D01*
X133916289Y-97280000D01*
X133960226Y-97323937D01*
X134129744Y-97437205D01*
X134318102Y-97515226D01*
X134518061Y-97555000D01*
X134721939Y-97555000D01*
X134921898Y-97515226D01*
X135110256Y-97437205D01*
X135279774Y-97323937D01*
X135423937Y-97179774D01*
X135537205Y-97010256D01*
X135615226Y-96821898D01*
X135655000Y-96621939D01*
X135655000Y-96418061D01*
X135615226Y-96218102D01*
X135537205Y-96029744D01*
X135423937Y-95860226D01*
X135279774Y-95716063D01*
X135110256Y-95602795D01*
X134921898Y-95524774D01*
X134721939Y-95485000D01*
X134518061Y-95485000D01*
X134318102Y-95524774D01*
X134129744Y-95602795D01*
X133960226Y-95716063D01*
X133916289Y-95760000D01*
X133333072Y-95760000D01*
X133333072Y-94500000D01*
X133320812Y-94375518D01*
X133284502Y-94255820D01*
X133225537Y-94145506D01*
X133146185Y-94048815D01*
X133077808Y-93992700D01*
X133146185Y-93936585D01*
X133225537Y-93839894D01*
X133284502Y-93729580D01*
X133320812Y-93609882D01*
X133333072Y-93485400D01*
X133333072Y-91985400D01*
X133330571Y-91960000D01*
X144796928Y-91960000D01*
X144796928Y-93460000D01*
X144809188Y-93584482D01*
X144845498Y-93704180D01*
X144904463Y-93814494D01*
X144983815Y-93911185D01*
X145067667Y-93980000D01*
X144983815Y-94048815D01*
X144904463Y-94145506D01*
X144845498Y-94255820D01*
X144809188Y-94375518D01*
X144796928Y-94500000D01*
X144796928Y-96000000D01*
X144809188Y-96124482D01*
X144845498Y-96244180D01*
X144904463Y-96354494D01*
X144983815Y-96451185D01*
X145067667Y-96520000D01*
X144983815Y-96588815D01*
X144904463Y-96685506D01*
X144845498Y-96795820D01*
X144809188Y-96915518D01*
X144796928Y-97040000D01*
X144796928Y-98540000D01*
X144809188Y-98664482D01*
X144845498Y-98784180D01*
X144904463Y-98894494D01*
X144983815Y-98991185D01*
X145067667Y-99060000D01*
X144983815Y-99128815D01*
X144904463Y-99225506D01*
X144845498Y-99335820D01*
X144809188Y-99455518D01*
X144796928Y-99580000D01*
X144796928Y-101080000D01*
X144809188Y-101204482D01*
X144845498Y-101324180D01*
X144904463Y-101434494D01*
X144983815Y-101531185D01*
X145080506Y-101610537D01*
X145190820Y-101669502D01*
X145310518Y-101705812D01*
X145435000Y-101718072D01*
X147935000Y-101718072D01*
X148059482Y-101705812D01*
X148179180Y-101669502D01*
X148289494Y-101610537D01*
X148386185Y-101531185D01*
X148465537Y-101434494D01*
X148524502Y-101324180D01*
X148560812Y-101204482D01*
X148573072Y-101080000D01*
X148573072Y-99580000D01*
X148560812Y-99455518D01*
X148524502Y-99335820D01*
X148465537Y-99225506D01*
X148386185Y-99128815D01*
X148302333Y-99060000D01*
X148386185Y-98991185D01*
X148465537Y-98894494D01*
X148524502Y-98784180D01*
X148560812Y-98664482D01*
X148573072Y-98540000D01*
X148573072Y-97040000D01*
X148560812Y-96915518D01*
X148524502Y-96795820D01*
X148465537Y-96685506D01*
X148386185Y-96588815D01*
X148302333Y-96520000D01*
X148386185Y-96451185D01*
X148465537Y-96354494D01*
X148494733Y-96299872D01*
X150165000Y-96299872D01*
X150165000Y-96740128D01*
X150250890Y-97171925D01*
X150419369Y-97578669D01*
X150663962Y-97944729D01*
X150975271Y-98256038D01*
X151341331Y-98500631D01*
X151748075Y-98669110D01*
X152179872Y-98755000D01*
X152620128Y-98755000D01*
X153051925Y-98669110D01*
X153458669Y-98500631D01*
X153824729Y-98256038D01*
X154136038Y-97944729D01*
X154380631Y-97578669D01*
X154549110Y-97171925D01*
X154635000Y-96740128D01*
X154635000Y-96299872D01*
X154549110Y-95868075D01*
X154380631Y-95461331D01*
X154136038Y-95095271D01*
X153824729Y-94783962D01*
X153458669Y-94539369D01*
X153051925Y-94370890D01*
X152620128Y-94285000D01*
X152179872Y-94285000D01*
X151748075Y-94370890D01*
X151341331Y-94539369D01*
X150975271Y-94783962D01*
X150663962Y-95095271D01*
X150419369Y-95461331D01*
X150250890Y-95868075D01*
X150165000Y-96299872D01*
X148494733Y-96299872D01*
X148524502Y-96244180D01*
X148560812Y-96124482D01*
X148573072Y-96000000D01*
X148573072Y-94500000D01*
X148560812Y-94375518D01*
X148524502Y-94255820D01*
X148465537Y-94145506D01*
X148386185Y-94048815D01*
X148302333Y-93980000D01*
X148386185Y-93911185D01*
X148465537Y-93814494D01*
X148524502Y-93704180D01*
X148560812Y-93584482D01*
X148573072Y-93460000D01*
X148573072Y-91960000D01*
X148560812Y-91835518D01*
X148524502Y-91715820D01*
X148465537Y-91605506D01*
X148386185Y-91508815D01*
X148289494Y-91429463D01*
X148179180Y-91370498D01*
X148059482Y-91334188D01*
X147935000Y-91321928D01*
X145435000Y-91321928D01*
X145310518Y-91334188D01*
X145190820Y-91370498D01*
X145080506Y-91429463D01*
X144983815Y-91508815D01*
X144904463Y-91605506D01*
X144845498Y-91715820D01*
X144809188Y-91835518D01*
X144796928Y-91960000D01*
X133330571Y-91960000D01*
X133320812Y-91860918D01*
X133284502Y-91741220D01*
X133225537Y-91630906D01*
X133146185Y-91534215D01*
X133049494Y-91454863D01*
X132939180Y-91395898D01*
X132819482Y-91359588D01*
X132695000Y-91347328D01*
X130195000Y-91347328D01*
X130070518Y-91359588D01*
X129950820Y-91395898D01*
X129840506Y-91454863D01*
X129743815Y-91534215D01*
X129664463Y-91630906D01*
X129605498Y-91741220D01*
X129569188Y-91860918D01*
X129556928Y-91985400D01*
X129556928Y-93485400D01*
X129569188Y-93609882D01*
X129605498Y-93729580D01*
X129664463Y-93839894D01*
X129743815Y-93936585D01*
X129812192Y-93992700D01*
X129743815Y-94048815D01*
X129664463Y-94145506D01*
X129605498Y-94255820D01*
X129569188Y-94375518D01*
X129556928Y-94500000D01*
X129556928Y-94674625D01*
X128113072Y-93230771D01*
X128113072Y-92973750D01*
X128096608Y-92806592D01*
X128047850Y-92645858D01*
X127968671Y-92497725D01*
X127862115Y-92367885D01*
X127732275Y-92261329D01*
X127584142Y-92182150D01*
X127423408Y-92133392D01*
X127256250Y-92116928D01*
X126743750Y-92116928D01*
X126576592Y-92133392D01*
X126415858Y-92182150D01*
X126267725Y-92261329D01*
X126137885Y-92367885D01*
X126031329Y-92497725D01*
X125952150Y-92645858D01*
X125903392Y-92806592D01*
X125886928Y-92973750D01*
X125886928Y-93308923D01*
X125821185Y-93228815D01*
X125724494Y-93149463D01*
X125614180Y-93090498D01*
X125494482Y-93054188D01*
X125370000Y-93041928D01*
X124680750Y-93045000D01*
X124522000Y-93203750D01*
X124522000Y-93853000D01*
X125846250Y-93853000D01*
X125954922Y-93744328D01*
X126031329Y-93887275D01*
X126107426Y-93980000D01*
X126084857Y-94007500D01*
X124914822Y-94007500D01*
X124877499Y-94003824D01*
X124840176Y-94007500D01*
X124840167Y-94007500D01*
X124728514Y-94018497D01*
X124620702Y-94051201D01*
X124585253Y-94061954D01*
X124463561Y-94127000D01*
X124268000Y-94127000D01*
X124268000Y-94107000D01*
X122943750Y-94107000D01*
X122785000Y-94265750D01*
X122781928Y-94280000D01*
X122794188Y-94404482D01*
X122830498Y-94524180D01*
X122889463Y-94634494D01*
X122913730Y-94664064D01*
X122841916Y-94798418D01*
X122797071Y-94946255D01*
X122781928Y-95100000D01*
X122781928Y-95400000D01*
X122797071Y-95553745D01*
X122841916Y-95701582D01*
X122914742Y-95837829D01*
X122953454Y-95885000D01*
X122914742Y-95932171D01*
X122891752Y-95975182D01*
X121057041Y-94140471D01*
X121058072Y-94130000D01*
X121058072Y-93830000D01*
X121043298Y-93680000D01*
X122781928Y-93680000D01*
X122785000Y-93694250D01*
X122943750Y-93853000D01*
X124268000Y-93853000D01*
X124268000Y-93203750D01*
X124109250Y-93045000D01*
X123420000Y-93041928D01*
X123295518Y-93054188D01*
X123175820Y-93090498D01*
X123065506Y-93149463D01*
X122968815Y-93228815D01*
X122889463Y-93325506D01*
X122830498Y-93435820D01*
X122794188Y-93555518D01*
X122781928Y-93680000D01*
X121043298Y-93680000D01*
X121042929Y-93676255D01*
X120998084Y-93528418D01*
X120925258Y-93392171D01*
X120827251Y-93272749D01*
X120707829Y-93174742D01*
X120571582Y-93101916D01*
X120423745Y-93057071D01*
X120270000Y-93041928D01*
X120205000Y-93041928D01*
X120205000Y-92530038D01*
X120240518Y-92540812D01*
X120365000Y-92553072D01*
X120516750Y-92550000D01*
X120675500Y-92391250D01*
X120675500Y-91567000D01*
X120929500Y-91567000D01*
X120929500Y-92391250D01*
X121088250Y-92550000D01*
X121240000Y-92553072D01*
X121364482Y-92540812D01*
X121484180Y-92504502D01*
X121594494Y-92445537D01*
X121691185Y-92366185D01*
X121770537Y-92269494D01*
X121829502Y-92159180D01*
X121865812Y-92039482D01*
X121878072Y-91915000D01*
X121875000Y-91725750D01*
X121716250Y-91567000D01*
X120929500Y-91567000D01*
X120675500Y-91567000D01*
X120655500Y-91567000D01*
X120655500Y-91313000D01*
X120675500Y-91313000D01*
X120675500Y-90488750D01*
X120929500Y-90488750D01*
X120929500Y-91313000D01*
X121716250Y-91313000D01*
X121875000Y-91154250D01*
X121878072Y-90965000D01*
X121865812Y-90840518D01*
X121829502Y-90720820D01*
X121770537Y-90610506D01*
X121691185Y-90513815D01*
X121594494Y-90434463D01*
X121484180Y-90375498D01*
X121364482Y-90339188D01*
X121240000Y-90326928D01*
X121088250Y-90330000D01*
X120929500Y-90488750D01*
X120675500Y-90488750D01*
X120516750Y-90330000D01*
X120365000Y-90326928D01*
X120240518Y-90339188D01*
X120120820Y-90375498D01*
X120010506Y-90434463D01*
X119943930Y-90489100D01*
X119922275Y-90471329D01*
X119774142Y-90392150D01*
X119613408Y-90343392D01*
X119446250Y-90326928D01*
X119008750Y-90326928D01*
X118841592Y-90343392D01*
X118680858Y-90392150D01*
X118532725Y-90471329D01*
X118402885Y-90577885D01*
X118296329Y-90707725D01*
X118217150Y-90855858D01*
X118168392Y-91016592D01*
X118151928Y-91183750D01*
X118151928Y-91696250D01*
X118168392Y-91863408D01*
X118217150Y-92024142D01*
X118296329Y-92172275D01*
X118402885Y-92302115D01*
X118532725Y-92408671D01*
X118680858Y-92487850D01*
X118685001Y-92489107D01*
X118685000Y-93041928D01*
X118620000Y-93041928D01*
X118466255Y-93057071D01*
X118318418Y-93101916D01*
X118182171Y-93174742D01*
X118062749Y-93272749D01*
X117964742Y-93392171D01*
X117891916Y-93528418D01*
X117847071Y-93676255D01*
X117839583Y-93752281D01*
X117318072Y-93230770D01*
X117318072Y-92973750D01*
X117301608Y-92806592D01*
X117252850Y-92645858D01*
X117173671Y-92497725D01*
X117067115Y-92367885D01*
X116937275Y-92261329D01*
X116789142Y-92182150D01*
X116628408Y-92133392D01*
X116461250Y-92116928D01*
X115948750Y-92116928D01*
X115781592Y-92133392D01*
X115620858Y-92182150D01*
X115472725Y-92261329D01*
X115342885Y-92367885D01*
X115236329Y-92497725D01*
X115157150Y-92645858D01*
X115108392Y-92806592D01*
X115091928Y-92973750D01*
X115091928Y-93411250D01*
X115108392Y-93578408D01*
X115125458Y-93634668D01*
X114999142Y-93567150D01*
X114838408Y-93518392D01*
X114671250Y-93501928D01*
X114233750Y-93501928D01*
X114066592Y-93518392D01*
X113905858Y-93567150D01*
X113757725Y-93646329D01*
X113665000Y-93722426D01*
X113572275Y-93646329D01*
X113424142Y-93567150D01*
X113263408Y-93518392D01*
X113096250Y-93501928D01*
X112658750Y-93501928D01*
X112491592Y-93518392D01*
X112330858Y-93567150D01*
X112182725Y-93646329D01*
X112052885Y-93752885D01*
X111946329Y-93882725D01*
X111867150Y-94030858D01*
X111818392Y-94191592D01*
X111801928Y-94358750D01*
X111801928Y-94615770D01*
X110657699Y-95760000D01*
X110498178Y-95760000D01*
X110373475Y-95573368D01*
X110166632Y-95366525D01*
X109984466Y-95244805D01*
X110101355Y-95175178D01*
X110317588Y-94980269D01*
X110491641Y-94746920D01*
X110616825Y-94484099D01*
X110661476Y-94336890D01*
X110540155Y-94107000D01*
X109347000Y-94107000D01*
X109347000Y-94127000D01*
X109093000Y-94127000D01*
X109093000Y-94107000D01*
X107899845Y-94107000D01*
X107778524Y-94336890D01*
X107823175Y-94484099D01*
X107948359Y-94746920D01*
X108122412Y-94980269D01*
X108338645Y-95175178D01*
X108455534Y-95244805D01*
X108273368Y-95366525D01*
X108066525Y-95573368D01*
X107904010Y-95816589D01*
X107792068Y-96086842D01*
X107735000Y-96373740D01*
X107735000Y-96666260D01*
X107792068Y-96953158D01*
X107904010Y-97223411D01*
X108066525Y-97466632D01*
X108198380Y-97598487D01*
X108125820Y-97620498D01*
X108015506Y-97679463D01*
X107918815Y-97758815D01*
X107839463Y-97855506D01*
X107780498Y-97965820D01*
X107744188Y-98085518D01*
X107731928Y-98210000D01*
X103705767Y-98210000D01*
X103971038Y-97944729D01*
X104215631Y-97578669D01*
X104384110Y-97171925D01*
X104470000Y-96740128D01*
X104470000Y-96299872D01*
X104384110Y-95868075D01*
X104215631Y-95461331D01*
X103971038Y-95095271D01*
X103659729Y-94783962D01*
X103293669Y-94539369D01*
X102886925Y-94370890D01*
X102455128Y-94285000D01*
X102014872Y-94285000D01*
X101583075Y-94370890D01*
X101176331Y-94539369D01*
X100810271Y-94783962D01*
X100498962Y-95095271D01*
X100254369Y-95461331D01*
X100085890Y-95868075D01*
X100000000Y-96299872D01*
X98450000Y-96299872D01*
X98450000Y-93623110D01*
X107778524Y-93623110D01*
X107899845Y-93853000D01*
X109093000Y-93853000D01*
X109093000Y-92659186D01*
X109347000Y-92659186D01*
X109347000Y-93853000D01*
X110540155Y-93853000D01*
X110661476Y-93623110D01*
X110616825Y-93475901D01*
X110491641Y-93213080D01*
X110317588Y-92979731D01*
X110101355Y-92784822D01*
X109851252Y-92635843D01*
X109576891Y-92538519D01*
X109347000Y-92659186D01*
X109093000Y-92659186D01*
X108863109Y-92538519D01*
X108588748Y-92635843D01*
X108338645Y-92784822D01*
X108122412Y-92979731D01*
X107948359Y-93213080D01*
X107823175Y-93475901D01*
X107778524Y-93623110D01*
X98450000Y-93623110D01*
X98450000Y-90195000D01*
X156185000Y-90195000D01*
X156185001Y-102845000D01*
G36*
X128780001Y-96047304D02*
G01*
X128780000Y-98387677D01*
X128776324Y-98425000D01*
X128780000Y-98462322D01*
X128780000Y-98462332D01*
X128790997Y-98573985D01*
X128817089Y-98660000D01*
X128803061Y-98660000D01*
X128603102Y-98699774D01*
X128414744Y-98777795D01*
X128245226Y-98891063D01*
X128101063Y-99035226D01*
X127987795Y-99204744D01*
X127909774Y-99393102D01*
X127870000Y-99593061D01*
X127870000Y-99655198D01*
X126685199Y-100840000D01*
X122234802Y-100840000D01*
X120205000Y-98810199D01*
X120205000Y-98728072D01*
X120270000Y-98728072D01*
X120423745Y-98712929D01*
X120571582Y-98668084D01*
X120707829Y-98595258D01*
X120827251Y-98497251D01*
X120925258Y-98377829D01*
X120998084Y-98241582D01*
X121042929Y-98093745D01*
X121058072Y-97940000D01*
X121058072Y-97640000D01*
X121042929Y-97486255D01*
X120998084Y-97338418D01*
X120925258Y-97202171D01*
X120886546Y-97155000D01*
X120925258Y-97107829D01*
X120998084Y-96971582D01*
X121042929Y-96823745D01*
X121058072Y-96670000D01*
X121058072Y-96370000D01*
X121049452Y-96282486D01*
X122277501Y-97510535D01*
X122277500Y-98779857D01*
X122212885Y-98832885D01*
X122106329Y-98962725D01*
X122027150Y-99110858D01*
X121978392Y-99271592D01*
X121961928Y-99438750D01*
X121961928Y-99951250D01*
X121978392Y-100118408D01*
X122027150Y-100279142D01*
X122106329Y-100427275D01*
X122212885Y-100557115D01*
X122342725Y-100663671D01*
X122490858Y-100742850D01*
X122651592Y-100791608D01*
X122818750Y-100808072D01*
X123256250Y-100808072D01*
X123423408Y-100791608D01*
X123584142Y-100742850D01*
X123732275Y-100663671D01*
X123825000Y-100587574D01*
X123917725Y-100663671D01*
X124065858Y-100742850D01*
X124226592Y-100791608D01*
X124393750Y-100808072D01*
X124831250Y-100808072D01*
X124998408Y-100791608D01*
X125159142Y-100742850D01*
X125307275Y-100663671D01*
X125437115Y-100557115D01*
X125543671Y-100427275D01*
X125622850Y-100279142D01*
X125671608Y-100118408D01*
X125688072Y-99951250D01*
X125688072Y-99438750D01*
X125671608Y-99271592D01*
X125622850Y-99110858D01*
X125543671Y-98962725D01*
X125437115Y-98832885D01*
X125372500Y-98779857D01*
X125372500Y-98713052D01*
X125373745Y-98712929D01*
X125408125Y-98702500D01*
X126084857Y-98702500D01*
X126137885Y-98767115D01*
X126267725Y-98873671D01*
X126415858Y-98952850D01*
X126576592Y-99001608D01*
X126743750Y-99018072D01*
X127256250Y-99018072D01*
X127423408Y-99001608D01*
X127584142Y-98952850D01*
X127732275Y-98873671D01*
X127862115Y-98767115D01*
X127968671Y-98637275D01*
X128047850Y-98489142D01*
X128096608Y-98328408D01*
X128113072Y-98161250D01*
X128113072Y-97723750D01*
X128096608Y-97556592D01*
X128047850Y-97395858D01*
X127968671Y-97247725D01*
X127892574Y-97155000D01*
X127968671Y-97062275D01*
X128047850Y-96914142D01*
X128096608Y-96753408D01*
X128113072Y-96586250D01*
X128113072Y-96148750D01*
X128096608Y-95981592D01*
X128047850Y-95820858D01*
X127968671Y-95672725D01*
X127882316Y-95567500D01*
X127968671Y-95462275D01*
X128047498Y-95314800D01*
X128780001Y-96047304D01*
G37*
X128780001Y-96047304D02*
X128780000Y-98387677D01*
X128776324Y-98425000D01*
X128780000Y-98462322D01*
X128780000Y-98462332D01*
X128790997Y-98573985D01*
X128817089Y-98660000D01*
X128803061Y-98660000D01*
X128603102Y-98699774D01*
X128414744Y-98777795D01*
X128245226Y-98891063D01*
X128101063Y-99035226D01*
X127987795Y-99204744D01*
X127909774Y-99393102D01*
X127870000Y-99593061D01*
X127870000Y-99655198D01*
X126685199Y-100840000D01*
X122234802Y-100840000D01*
X120205000Y-98810199D01*
X120205000Y-98728072D01*
X120270000Y-98728072D01*
X120423745Y-98712929D01*
X120571582Y-98668084D01*
X120707829Y-98595258D01*
X120827251Y-98497251D01*
X120925258Y-98377829D01*
X120998084Y-98241582D01*
X121042929Y-98093745D01*
X121058072Y-97940000D01*
X121058072Y-97640000D01*
X121042929Y-97486255D01*
X120998084Y-97338418D01*
X120925258Y-97202171D01*
X120886546Y-97155000D01*
X120925258Y-97107829D01*
X120998084Y-96971582D01*
X121042929Y-96823745D01*
X121058072Y-96670000D01*
X121058072Y-96370000D01*
X121049452Y-96282486D01*
X122277501Y-97510535D01*
X122277500Y-98779857D01*
X122212885Y-98832885D01*
X122106329Y-98962725D01*
X122027150Y-99110858D01*
X121978392Y-99271592D01*
X121961928Y-99438750D01*
X121961928Y-99951250D01*
X121978392Y-100118408D01*
X122027150Y-100279142D01*
X122106329Y-100427275D01*
X122212885Y-100557115D01*
X122342725Y-100663671D01*
X122490858Y-100742850D01*
X122651592Y-100791608D01*
X122818750Y-100808072D01*
X123256250Y-100808072D01*
X123423408Y-100791608D01*
X123584142Y-100742850D01*
X123732275Y-100663671D01*
X123825000Y-100587574D01*
X123917725Y-100663671D01*
X124065858Y-100742850D01*
X124226592Y-100791608D01*
X124393750Y-100808072D01*
X124831250Y-100808072D01*
X124998408Y-100791608D01*
X125159142Y-100742850D01*
X125307275Y-100663671D01*
X125437115Y-100557115D01*
X125543671Y-100427275D01*
X125622850Y-100279142D01*
X125671608Y-100118408D01*
X125688072Y-99951250D01*
X125688072Y-99438750D01*
X125671608Y-99271592D01*
X125622850Y-99110858D01*
X125543671Y-98962725D01*
X125437115Y-98832885D01*
X125372500Y-98779857D01*
X125372500Y-98713052D01*
X125373745Y-98712929D01*
X125408125Y-98702500D01*
X126084857Y-98702500D01*
X126137885Y-98767115D01*
X126267725Y-98873671D01*
X126415858Y-98952850D01*
X126576592Y-99001608D01*
X126743750Y-99018072D01*
X127256250Y-99018072D01*
X127423408Y-99001608D01*
X127584142Y-98952850D01*
X127732275Y-98873671D01*
X127862115Y-98767115D01*
X127968671Y-98637275D01*
X128047850Y-98489142D01*
X128096608Y-98328408D01*
X128113072Y-98161250D01*
X128113072Y-97723750D01*
X128096608Y-97556592D01*
X128047850Y-97395858D01*
X127968671Y-97247725D01*
X127892574Y-97155000D01*
X127968671Y-97062275D01*
X128047850Y-96914142D01*
X128096608Y-96753408D01*
X128113072Y-96586250D01*
X128113072Y-96148750D01*
X128096608Y-95981592D01*
X128047850Y-95820858D01*
X127968671Y-95672725D01*
X127882316Y-95567500D01*
X127968671Y-95462275D01*
X128047498Y-95314800D01*
X128780001Y-96047304D01*
G36*
X115264359Y-95496430D02*
G01*
X115199463Y-95575506D01*
X115140498Y-95685820D01*
X115104188Y-95805518D01*
X115091928Y-95930000D01*
X115095000Y-96081750D01*
X115253750Y-96240500D01*
X116078000Y-96240500D01*
X116078000Y-96220500D01*
X116332000Y-96220500D01*
X116332000Y-96240500D01*
X116352000Y-96240500D01*
X116352000Y-96494500D01*
X116332000Y-96494500D01*
X116332000Y-96514500D01*
X116078000Y-96514500D01*
X116078000Y-96494500D01*
X115253750Y-96494500D01*
X115095000Y-96653250D01*
X115091928Y-96805000D01*
X115104188Y-96929482D01*
X115140498Y-97049180D01*
X115199463Y-97159494D01*
X115218343Y-97182500D01*
X111345279Y-97182500D01*
X111396776Y-97154974D01*
X111512501Y-97060001D01*
X111536304Y-97030997D01*
X112839230Y-95728072D01*
X113096250Y-95728072D01*
X113263408Y-95711608D01*
X113424142Y-95662850D01*
X113572275Y-95583671D01*
X113665000Y-95507574D01*
X113757725Y-95583671D01*
X113905858Y-95662850D01*
X114066592Y-95711608D01*
X114233750Y-95728072D01*
X114671250Y-95728072D01*
X114838408Y-95711608D01*
X114999142Y-95662850D01*
X115147275Y-95583671D01*
X115260021Y-95491144D01*
X115264359Y-95496430D01*
G37*
X115264359Y-95496430D02*
X115199463Y-95575506D01*
X115140498Y-95685820D01*
X115104188Y-95805518D01*
X115091928Y-95930000D01*
X115095000Y-96081750D01*
X115253750Y-96240500D01*
X116078000Y-96240500D01*
X116078000Y-96220500D01*
X116332000Y-96220500D01*
X116332000Y-96240500D01*
X116352000Y-96240500D01*
X116352000Y-96494500D01*
X116332000Y-96494500D01*
X116332000Y-96514500D01*
X116078000Y-96514500D01*
X116078000Y-96494500D01*
X115253750Y-96494500D01*
X115095000Y-96653250D01*
X115091928Y-96805000D01*
X115104188Y-96929482D01*
X115140498Y-97049180D01*
X115199463Y-97159494D01*
X115218343Y-97182500D01*
X111345279Y-97182500D01*
X111396776Y-97154974D01*
X111512501Y-97060001D01*
X111536304Y-97030997D01*
X112839230Y-95728072D01*
X113096250Y-95728072D01*
X113263408Y-95711608D01*
X113424142Y-95662850D01*
X113572275Y-95583671D01*
X113665000Y-95507574D01*
X113757725Y-95583671D01*
X113905858Y-95662850D01*
X114066592Y-95711608D01*
X114233750Y-95728072D01*
X114671250Y-95728072D01*
X114838408Y-95711608D01*
X114999142Y-95662850D01*
X115147275Y-95583671D01*
X115260021Y-95491144D01*
X115264359Y-95496430D01*
%TD*%
M02*
